  0
SECTION
  2
HEADER
  9
$ACADVER
  1
AC1015
  9
$ACADMAINTVER
 70
     6
  9
$DWGCODEPAGE
  3
ANSI_1252
  9
$INSBASE
 10
0.0
 20
0.0
 30
0.0
  9
$EXTMIN
 10
-6.3223742558
 20
-3.8516665572
 30
0.0
  9
$EXTMAX
 10
45.6961628082
 20
24.4608972471
 30
0.0
  9
$LIMMIN
 10
0.0
 20
0.0
  9
$LIMMAX
 10
420.0
 20
297.0
  9
$ORTHOMODE
 70
     0
  9
$REGENMODE
 70
     1
  9
$FILLMODE
 70
     1
  9
$QTEXTMODE
 70
     0
  9
$MIRRTEXT
 70
     1
  9
$LTSCALE
 40
1.0
  9
$ATTMODE
 70
     1
  9
$TEXTSIZE
 40
3.5
  9
$TRACEWID
 40
1.0
  9
$TEXTSTYLE
  7
Standard
  9
$CLAYER
  8
0
  9
$CELTYPE
  6
ByLayer
  9
$CECOLOR
 62
   256
  9
$CELTSCALE
 40
1.0
  9
$DISPSILH
 70
     0
  9
$DIMSCALE
 40
1.0
  9
$DIMASZ
 40
3.556
  9
$DIMEXO
 40
1.0
  9
$DIMDLI
 40
3.75
  9
$DIMRND
 40
0.0
  9
$DIMDLE
 40
0.0
  9
$DIMEXE
 40
1.0
  9
$DIMTP
 40
0.0
  9
$DIMTM
 40
0.0
  9
$DIMTXT
 40
3.5
  9
$DIMCEN
 40
2.5
  9
$DIMTSZ
 40
0.0
  9
$DIMTOL
 70
     0
  9
$DIMLIM
 70
     0
  9
$DIMTIH
 70
     1
  9
$DIMTOH
 70
     1
  9
$DIMSE1
 70
     0
  9
$DIMSE2
 70
     0
  9
$DIMTAD
 70
     1
  9
$DIMZIN
 70
     0
  9
$DIMBLK
  1

  9
$DIMASO
 70
     1
  9
$DIMSHO
 70
     1
  9
$DIMPOST
  1

  9
$DIMAPOST
  1

  9
$DIMALT
 70
     0
  9
$DIMALTD
 70
     3
  9
$DIMALTF
 40
0.0393700787
  9
$DIMLFAC
 40
1.0
  9
$DIMTOFL
 70
     1
  9
$DIMTVP
 40
0.0
  9
$DIMTIX
 70
     0
  9
$DIMSOXD
 70
     0
  9
$DIMSAH
 70
     0
  9
$DIMBLK1
  1

  9
$DIMBLK2
  1

  9
$DIMSTYLE
  2
ISO-25
  9
$DIMCLRD
 70
     0
  9
$DIMCLRE
 70
     0
  9
$DIMCLRT
 70
     0
  9
$DIMTFAC
 40
1.0
  9
$DIMGAP
 40
1.524
  9
$DIMJUST
 70
     0
  9
$DIMSD1
 70
     0
  9
$DIMSD2
 70
     0
  9
$DIMTOLJ
 70
     0
  9
$DIMTZIN
 70
     0
  9
$DIMALTZ
 70
     0
  9
$DIMALTTZ
 70
     0
  9
$DIMUPT
 70
     0
  9
$DIMDEC
 70
     2
  9
$DIMTDEC
 70
     2
  9
$DIMALTU
 70
     2
  9
$DIMALTTD
 70
     3
  9
$DIMTXSTY
  7
Standard
  9
$DIMAUNIT
 70
     0
  9
$DIMADEC
 70
     2
  9
$DIMALTRND
 40
0.0
  9
$DIMAZIN
 70
     0
  9
$DIMDSEP
 70
    44
  9
$DIMATFIT
 70
     3
  9
$DIMFRAC
 70
     0
  9
$DIMLDRBLK
  1

  9
$DIMLUNIT
 70
     2
  9
$DIMLWD
 70
    -2
  9
$DIMLWE
 70
    -2
  9
$DIMTMOVE
 70
     0
  9
$LUNITS
 70
     2
  9
$LUPREC
 70
     2
  9
$SKETCHINC
 40
1.0
  9
$FILLETRAD
 40
10.0
  9
$AUNITS
 70
     0
  9
$AUPREC
 70
     2
  9
$MENU
  1
.
  9
$ELEVATION
 40
0.0
  9
$PELEVATION
 40
0.0
  9
$THICKNESS
 40
0.0
  9
$LIMCHECK
 70
     0
  9
$CHAMFERA
 40
0.0
  9
$CHAMFERB
 40
0.0
  9
$CHAMFERC
 40
0.0
  9
$CHAMFERD
 40
0.0
  9
$SKPOLY
 70
     0
  9
$TDCREATE
 40
2458975.077399143
  9
$TDUCREATE
 40
2458975.36906581
  9
$TDUPDATE
 40
2458975.077513958
  9
$TDUUPDATE
 40
2458975.369180625
  9
$TDINDWG
 40
0.0000000116
  9
$TDUSRTIMER
 40
0.0000000116
  9
$USRTIMER
 70
     1
  9
$ANGBASE
 50
0.0
  9
$ANGDIR
 70
     0
  9
$PDMODE
 70
     0
  9
$PDSIZE
 40
-1.0
  9
$PLINEWID
 40
0.0
  9
$SPLFRAME
 70
     0
  9
$SPLINETYPE
 70
     6
  9
$SPLINESEGS
 70
     8
  9
$HANDSEED
  5
337
  9
$SURFTAB1
 70
     6
  9
$SURFTAB2
 70
     6
  9
$SURFTYPE
 70
     6
  9
$SURFU
 70
     6
  9
$SURFV
 70
     6
  9
$UCSBASE
  2

  9
$UCSNAME
  2

  9
$UCSORG
 10
0.0
 20
0.0
 30
0.0
  9
$UCSXDIR
 10
1.0
 20
0.0
 30
0.0
  9
$UCSYDIR
 10
0.0
 20
1.0
 30
0.0
  9
$UCSORTHOREF
  2

  9
$UCSORTHOVIEW
 70
     0
  9
$UCSORGTOP
 10
0.0
 20
0.0
 30
0.0
  9
$UCSORGBOTTOM
 10
0.0
 20
0.0
 30
0.0
  9
$UCSORGLEFT
 10
0.0
 20
0.0
 30
0.0
  9
$UCSORGRIGHT
 10
0.0
 20
0.0
 30
0.0
  9
$UCSORGFRONT
 10
0.0
 20
0.0
 30
0.0
  9
$UCSORGBACK
 10
0.0
 20
0.0
 30
0.0
  9
$PUCSBASE
  2

  9
$PUCSNAME
  2

  9
$PUCSORG
 10
0.0
 20
0.0
 30
0.0
  9
$PUCSXDIR
 10
1.0
 20
0.0
 30
0.0
  9
$PUCSYDIR
 10
0.0
 20
1.0
 30
0.0
  9
$PUCSORTHOREF
  2

  9
$PUCSORTHOVIEW
 70
     0
  9
$PUCSORGTOP
 10
0.0
 20
0.0
 30
0.0
  9
$PUCSORGBOTTOM
 10
0.0
 20
0.0
 30
0.0
  9
$PUCSORGLEFT
 10
0.0
 20
0.0
 30
0.0
  9
$PUCSORGRIGHT
 10
0.0
 20
0.0
 30
0.0
  9
$PUCSORGFRONT
 10
0.0
 20
0.0
 30
0.0
  9
$PUCSORGBACK
 10
0.0
 20
0.0
 30
0.0
  9
$USERI1
 70
     0
  9
$USERI2
 70
     0
  9
$USERI3
 70
     0
  9
$USERI4
 70
     0
  9
$USERI5
 70
     0
  9
$USERR1
 40
0.0
  9
$USERR2
 40
0.0
  9
$USERR3
 40
0.0
  9
$USERR4
 40
0.0
  9
$USERR5
 40
0.0
  9
$WORLDVIEW
 70
     1
  9
$SHADEDGE
 70
     3
  9
$SHADEDIF
 70
    70
  9
$TILEMODE
 70
     1
  9
$MAXACTVP
 70
    64
  9
$PINSBASE
 10
0.0
 20
0.0
 30
0.0
  9
$PLIMCHECK
 70
     0
  9
$PEXTMIN
 10
0.0
 20
0.0
 30
0.0
  9
$PEXTMAX
 10
48.35
 20
24.35
 30
0.0
  9
$PLIMMIN
 10
-3.7626459144
 20
-1.4109922179
  9
$PLIMMAX
 10
52.1126459144
 20
38.0967898833
  9
$UNITMODE
 70
     0
  9
$VISRETAIN
 70
     1
  9
$PLINEGEN
 70
     0
  9
$PSLTSCALE
 70
     1
  9
$TREEDEPTH
 70
  3020
  9
$CMLSTYLE
  2
Standard
  9
$CMLJUST
 70
     0
  9
$CMLSCALE
 40
20.0
  9
$PROXYGRAPHICS
 70
     1
  9
$MEASUREMENT
 70
     1
  9
$CELWEIGHT
370
    -1
  9
$ENDCAPS
280
     0
  9
$JOINSTYLE
280
     0
  9
$LWDISPLAY
290
     1
  9
$INSUNITS
 70
     4
  9
$HYPERLINKBASE
  1

  9
$STYLESHEET
  1

  9
$XEDIT
290
     1
  9
$CEPSNTYPE
380
     0
  9
$PSTYLEMODE
290
     1
  9
$FINGERPRINTGUID
  2
{321842B9-E78D-4C46-8A12-BA09AE9D9F70}
  9
$VERSIONGUID
  2
{FAEB1C32-E019-11D5-929B-00C0DF256EC4}
  9
$EXTNAMES
290
     1
  9
$PSVPSCALE
 40
0.0
  9
$OLESTARTUP
290
     0
  0
ENDSEC
  0
SECTION
  2
CLASSES
  0
CLASS
  1
ACDBDICTIONARYWDFLT
  2
AcDbDictionaryWithDefault
  3
ObjectDBX Classes
 90
        0
280
     0
281
     0
  0
CLASS
  1
VISUALSTYLE
  2
AcDbVisualStyle
  3
ObjectDBX Classes
 90
     4095
280
     0
281
     0
  0
CLASS
  1
MATERIAL
  2
AcDbMaterial
  3
ObjectDBX Classes
 90
     1153
280
     0
281
     0
  0
CLASS
  1
SCALE
  2
AcDbScale
  3
ObjectDBX Classes
 90
     1153
280
     0
281
     0
  0
CLASS
  1
TABLESTYLE
  2
AcDbTableStyle
  3
ObjectDBX Classes
 90
     4095
280
     0
281
     0
  0
CLASS
  1
MLEADERSTYLE
  2
AcDbMLeaderStyle
  3
ACDB_MLEADERSTYLE_CLASS
 90
     4095
280
     0
281
     0
  0
CLASS
  1
SUN
  2
AcDbSun
  3
SCENEOE
 90
     1153
280
     0
281
     0
  0
CLASS
  1
ACDBPLACEHOLDER
  2
AcDbPlaceHolder
  3
ObjectDBX Classes
 90
        0
280
     0
281
     0
  0
CLASS
  1
LAYOUT
  2
AcDbLayout
  3
ObjectDBX Classes
 90
        0
280
     0
281
     0
  0
ENDSEC
  0
SECTION
  2
TABLES
  0
TABLE
  2
VPORT
  5
8
330
0
100
AcDbSymbolTable
 70
     1
  0
VPORT
  5
29
330
8
100
AcDbSymbolTableRecord
100
AcDbViewportTableRecord
  2
*Active
 70
     0
 10
0.0
 20
0.0
 11
1.0
 21
1.0
 12
19.6868942762
 22
10.304615345
 13
0.0
 23
0.0
 14
10.0
 24
10.0
 15
10.0
 25
10.0
 16
0.0
 26
0.0
 36
1.0
 17
0.0
 27
0.0
 37
0.0
 40
28.8788150804
 41
1.8372951819
 42
50.0
 43
0.0
 44
0.0
 50
0.0
 51
0.0
 71
     0
 72
   100
 73
     1
 74
     3
 75
     0
 76
     0
 77
     0
 78
     0
281
     0
 65
     1
110
0.0
120
0.0
130
0.0
111
1.0
121
0.0
131
0.0
112
0.0
122
1.0
132
0.0
 79
     0
146
0.0
  0
ENDTAB
  0
TABLE
  2
LTYPE
  5
5
330
0
100
AcDbSymbolTable
 70
     6
  0
LTYPE
  5
14
330
5
100
AcDbSymbolTableRecord
100
AcDbLinetypeTableRecord
  2
ByBlock
 70
     0
  3

 72
    65
 73
     0
 40
0.0
  0
LTYPE
  5
15
330
5
100
AcDbSymbolTableRecord
100
AcDbLinetypeTableRecord
  2
ByLayer
 70
     0
  3

 72
    65
 73
     0
 40
0.0
  0
LTYPE
  5
16
330
5
100
AcDbSymbolTableRecord
100
AcDbLinetypeTableRecord
  2
Continuous
 70
     0
  3
Solid line
 72
    65
 73
     0
 40
0.0
  0
LTYPE
  5
6E
330
5
100
AcDbSymbolTableRecord
100
AcDbLinetypeTableRecord
  2
HIDDEN
 70
     0
  3
Hidden __ __ __ __ __ __ __ __ __ __ __ __ __ __
 72
    65
 73
     2
 40
1.905
 49
1.27
 74
     0
 49
-0.635
 74
     0
  0
LTYPE
  5
6F
330
5
100
AcDbSymbolTableRecord
100
AcDbLinetypeTableRecord
  2
PHANTOM
 70
     0
  3
Phantom ______  __  __  ______  __  __  ______
 72
    65
 73
     6
 40
12.7
 49
6.35
 74
     0
 49
-1.27
 74
     0
 49
1.27
 74
     0
 49
-1.27
 74
     0
 49
1.27
 74
     0
 49
-1.27
 74
     0
  0
LTYPE
  5
70
330
5
100
AcDbSymbolTableRecord
100
AcDbLinetypeTableRecord
  2
CENTER
 70
     0
  3
Center ____ _ ____ _ ____ _ ____ _ ____ _ ____
 72
    65
 73
     4
 40
10.16
 49
6.35
 74
     0
 49
-1.27
 74
     0
 49
1.27
 74
     0
 49
-1.27
 74
     0
  0
LTYPE
  5
71
330
5
100
AcDbSymbolTableRecord
100
AcDbLinetypeTableRecord
  2
CENTERX2
 70
     0
  3
Center (2x) ________  __  ________  __  _____
 72
    65
 73
     4
 40
20.32
 49
12.7
 74
     0
 49
-2.54
 74
     0
 49
2.54
 74
     0
 49
-2.54
 74
     0
  0
LTYPE
  5
72
330
5
100
AcDbSymbolTableRecord
100
AcDbLinetypeTableRecord
  2
DOT2
 70
     0
  3
Dot (.5x) ........................................
 72
    65
 73
     2
 40
0.635
 49
0.0
 74
     0
 49
-0.635
 74
     0
  0
ENDTAB
  0
TABLE
  2
LAYER
  5
2
330
0
100
AcDbSymbolTable
 70
     1
  0
LAYER
  5
10
330
2
100
AcDbSymbolTableRecord
100
AcDbLayerTableRecord
  2
0
 70
     0
 62
     7
  6
Continuous
370
    -3
390
F
  0
ENDTAB
  0
TABLE
  2
STYLE
  5
3
330
0
100
AcDbSymbolTable
 70
     1
  0
STYLE
  5
11
330
3
100
AcDbSymbolTableRecord
100
AcDbTextStyleTableRecord
  2
Standard
 70
     0
 40
0.0
 41
1.0
 50
0.0
 71
     0
 42
3.5
  3
txt
  4

  0
ENDTAB
  0
TABLE
  2
VIEW
  5
6
330
0
100
AcDbSymbolTable
 70
     0
  0
ENDTAB
  0
TABLE
  2
UCS
  5
7
330
0
100
AcDbSymbolTable
 70
     0
  0
ENDTAB
  0
TABLE
  2
APPID
  5
9
330
0
100
AcDbSymbolTable
 70
     1
  0
APPID
  5
12
330
9
100
AcDbSymbolTableRecord
100
AcDbRegAppTableRecord
  2
ACAD
 70
     0
  0
ENDTAB
  0
TABLE
  2
DIMSTYLE
  5
A
330
0
100
AcDbSymbolTable
 70
     1
100
AcDbDimStyleTable
  0
DIMSTYLE
105
27
330
A
100
AcDbSymbolTableRecord
100
AcDbDimStyleTableRecord
  2
ISO-25
 70
     0
 41
2.5
 42
0.625
 43
3.75
 44
1.25
 73
     0
 74
     0
 77
     1
 78
     8
140
2.5
141
2.5
143
0.0393700787
147
0.625
171
     3
172
     1
178
     0
271
     2
272
     2
274
     3
278
    44
283
     0
284
     8
340
11
  0
ENDTAB
  0
TABLE
  2
BLOCK_RECORD
  5
1
330
0
100
AcDbSymbolTable
 70
     6
  0
BLOCK_RECORD
  5
1F
330
1
100
AcDbSymbolTableRecord
100
AcDbBlockTableRecord
  2
*Model_Space
340
22
  0
BLOCK_RECORD
  5
1B
330
1
100
AcDbSymbolTableRecord
100
AcDbBlockTableRecord
  2
*Paper_Space
340
1E
  0
BLOCK_RECORD
  5
23
330
1
100
AcDbSymbolTableRecord
100
AcDbBlockTableRecord
  2
*Paper_Space0
340
26
  0
BLOCK_RECORD
  5
17A
330
1
100
AcDbSymbolTableRecord
100
AcDbBlockTableRecord
  2
*Paper_Space1
340
17B
  0
BLOCK_RECORD
  5
1D7
330
1
100
AcDbSymbolTableRecord
100
AcDbBlockTableRecord
  2
*Paper_Space2
340
1D8
  0
BLOCK_RECORD
  5
1FF
330
1
100
AcDbSymbolTableRecord
100
AcDbBlockTableRecord
  2
*Paper_Space3
340
200
  0
BLOCK_RECORD
  5
227
330
1
100
AcDbSymbolTableRecord
100
AcDbBlockTableRecord
  2
*Paper_Space4
340
228
  0
BLOCK_RECORD
  5
249
330
1
100
AcDbSymbolTableRecord
100
AcDbBlockTableRecord
  2
*Paper_Space5
340
24A
  0
ENDTAB
  0
ENDSEC
  0
SECTION
  2
BLOCKS
  0
BLOCK
  5
20
330
1F
100
AcDbEntity
  8
0
100
AcDbBlockBegin
  2
*Model_Space
 70
     0
 10
0.0
 20
0.0
 30
0.0
  3
*Model_Space
  1

  0
ENDBLK
  5
21
330
1F
100
AcDbEntity
  8
0
100
AcDbBlockEnd
  0
BLOCK
  5
1C
330
1B
100
AcDbEntity
 67
     1
  8
0
100
AcDbBlockBegin
  2
*Paper_Space
 70
     0
 10
0.0
 20
0.0
 30
0.0
  3
*Paper_Space
  1

  0
ENDBLK
  5
1D
330
1B
100
AcDbEntity
 67
     1
  8
0
100
AcDbBlockEnd
  0
BLOCK
  5
24
330
23
100
AcDbEntity
  8
0
100
AcDbBlockBegin
  2
*Paper_Space0
 70
     0
 10
0.0
 20
0.0
 30
0.0
  3
*Paper_Space0
  1

  0
LINE
  5
16B
330
23
100
AcDbEntity
  8
0
  6
Continuous
 62
     7
370
    15
100
AcDbLine
 10
48.35
 20
2.02
 30
0.0
 11
48.3145235705
 21
2.02
 31
0.0
  0
LINE
  5
16C
330
23
100
AcDbEntity
  8
0
  6
Continuous
 62
     7
370
    15
100
AcDbLine
 10
48.3145235705
 20
2.02
 30
0.0
 11
48.3145235705
 21
0.52
 31
0.0
  0
LINE
  5
16D
330
23
100
AcDbEntity
  8
0
  6
Continuous
 62
     7
370
    15
100
AcDbLine
 10
48.3145235705
 20
0.52
 30
0.0
 11
48.35
 21
0.52
 31
0.0
  0
LINE
  5
16E
330
23
100
AcDbEntity
  8
0
  6
Continuous
 62
     7
370
    15
100
AcDbLine
 10
48.35
 20
13.7
 30
0.0
 11
48.35
 21
0.0
 31
0.0
  0
LINE
  5
16F
330
23
100
AcDbEntity
  8
0
  6
Continuous
 62
     7
370
    15
100
AcDbLine
 10
7.0
 20
0.0
 30
0.0
 11
48.35
 21
0.0
 31
0.0
  0
LINE
  5
170
330
23
100
AcDbEntity
  8
0
  6
Continuous
 62
     7
370
    15
100
AcDbLine
 10
45.35
 20
0.0
 30
0.0
 11
45.35
 21
13.7
 31
0.0
  0
LINE
  5
171
330
23
100
AcDbEntity
  8
0
  6
Continuous
 62
     7
370
    15
100
AcDbLine
 10
3.0
 20
13.7
 30
0.0
 11
3.0
 21
2.5
 31
0.0
  0
LINE
  5
172
330
23
100
AcDbEntity
  8
0
  6
Continuous
 62
     7
370
    15
100
AcDbLine
 10
7.0
 20
2.5
 30
0.0
 11
0.0
 21
2.5
 31
0.0
  0
LINE
  5
173
330
23
100
AcDbEntity
  8
0
  6
Continuous
 62
     7
370
    15
100
AcDbLine
 10
0.0
 20
2.5
 30
0.0
 11
0.0
 21
13.7
 31
0.0
  0
LINE
  5
174
330
23
100
AcDbEntity
  8
0
  6
Continuous
 62
     7
370
    15
100
AcDbLine
 10
0.0
 20
13.7
 30
0.0
 11
48.35
 21
13.7
 31
0.0
  0
LINE
  5
175
330
23
100
AcDbEntity
  8
0
  6
Continuous
 62
     7
370
    15
100
AcDbLine
 10
7.0
 20
2.5
 30
0.0
 11
7.0
 21
0.0
 31
0.0
  0
LINE
  5
176
330
23
100
AcDbEntity
  8
0
  6
Continuous
 62
     7
370
    15
100
AcDbLine
 10
28.85
 20
10.7
 30
0.0
 11
28.85
 21
4.2
 31
0.0
  0
LINE
  5
177
330
23
100
AcDbEntity
  8
0
  6
Continuous
 62
     7
370
    15
100
AcDbLine
 10
33.85
 20
10.7
 30
0.0
 11
28.85
 21
10.7
 31
0.0
  0
LINE
  5
178
330
23
100
AcDbEntity
  8
0
  6
Continuous
 62
     7
370
    15
100
AcDbLine
 10
33.85
 20
4.2
 30
0.0
 11
33.85
 21
10.7
 31
0.0
  0
LINE
  5
179
330
23
100
AcDbEntity
  8
0
  6
Continuous
 62
     7
370
    15
100
AcDbLine
 10
28.85
 20
4.2
 30
0.0
 11
33.85
 21
4.2
 31
0.0
  0
VIEWPORT
  5
32B
330
23
100
AcDbEntity
  8
0
100
AcDbViewport
 10
0.0
 20
0.0
 30
0.0
 40
205.6
 41
156.0
 68
     1
 69
     1
 12
19.6868942762
 22
10.304615345
 13
0.0
 23
0.0
 14
10.0
 24
10.0
 15
10.0
 25
10.0
 16
0.0
 26
0.0
 36
1.0
 17
0.0
 27
0.0
 37
0.0
 42
50.0
 43
0.0
 44
0.0
 45
40.2587043658
 50
0.0
 51
0.0
 72
   100
 90
   557152
  1

281
     0
 71
     1
 74
     0
110
0.0
120
0.0
130
0.0
111
1.0
121
0.0
131
0.0
112
0.0
122
1.0
132
0.0
 79
     0
146
0.0
  0
ENDBLK
  5
25
330
23
100
AcDbEntity
  8
0
100
AcDbBlockEnd
  0
BLOCK
  5
17C
330
17A
100
AcDbEntity
  8
0
100
AcDbBlockBegin
  2
*Paper_Space1
 70
     0
 10
0.0
 20
0.0
 30
0.0
  3
*Paper_Space1
  1

  0
CIRCLE
  5
186
330
17A
100
AcDbEntity
  8
0
  6
Continuous
 62
     7
370
    15
100
AcDbCircle
 10
19.35
 20
8.7
 30
0.0
 40
0.7500000000000036
  0
LINE
  5
1AF
330
17A
100
AcDbEntity
  8
0
  6
Continuous
 62
     7
370
    15
100
AcDbLine
 10
3.0
 20
13.7
 30
0.0
 11
3.0
 21
2.02
 31
0.0
  0
LINE
  5
1B0
330
17A
100
AcDbEntity
  8
0
  6
Continuous
 62
     7
370
    15
100
AcDbLine
 10
4.04
 20
2.02
 30
0.0
 11
2.54
 21
2.02
 31
0.0
  0
LINE
  5
1B1
330
17A
100
AcDbEntity
  8
0
  6
Continuous
 62
     7
370
    15
100
AcDbLine
 10
2.54
 20
2.02
 30
0.0
 11
2.54
 21
0.52
 31
0.0
  0
LINE
  5
1B2
330
17A
100
AcDbEntity
  8
0
  6
Continuous
 62
     7
370
    15
100
AcDbLine
 10
2.54
 20
0.52
 30
0.0
 11
4.04
 21
0.52
 31
0.0
  0
LINE
  5
1B3
330
17A
100
AcDbEntity
  8
0
  6
Continuous
 62
     7
370
    15
100
AcDbLine
 10
3.0
 20
0.52
 30
0.0
 11
3.0
 21
0.0
 31
0.0
  0
LINE
  5
1B4
330
17A
100
AcDbEntity
  8
0
  6
Continuous
 62
     7
370
    15
100
AcDbLine
 10
0.0
 20
0.0
 30
0.0
 11
24.35
 21
0.0
 31
0.0
  0
LINE
  5
1B5
330
17A
100
AcDbEntity
  8
0
  6
Continuous
 62
     7
370
    15
100
AcDbLine
 10
0.0
 20
0.0
 30
0.0
 11
0.0
 21
13.7
 31
0.0
  0
LINE
  5
1B6
330
17A
100
AcDbEntity
  8
0
  6
Continuous
 62
     7
370
    15
100
AcDbLine
 10
0.0
 20
13.7
 30
0.0
 11
24.35
 21
13.7
 31
0.0
  0
LINE
  5
1B7
330
17A
100
AcDbEntity
  8
0
  6
Continuous
 62
     7
370
    15
100
AcDbLine
 10
6.5785714286
 20
0.52
 30
0.0
 11
6.5785714286
 21
2.02
 31
0.0
  0
LINE
  5
1B8
330
17A
100
AcDbEntity
  8
0
  6
Continuous
 62
     7
370
    15
100
AcDbLine
 10
6.5785714286
 20
2.02
 30
0.0
 11
5.0785714286
 21
2.02
 31
0.0
  0
LINE
  5
1B9
330
17A
100
AcDbEntity
  8
0
  6
Continuous
 62
     7
370
    15
100
AcDbLine
 10
5.0785714286
 20
2.02
 30
0.0
 11
5.0785714286
 21
0.52
 31
0.0
  0
LINE
  5
1BA
330
17A
100
AcDbEntity
  8
0
  6
Continuous
 62
     7
370
    15
100
AcDbLine
 10
5.0785714286
 20
0.52
 30
0.0
 11
6.5785714286
 21
0.52
 31
0.0
  0
LINE
  5
1BB
330
17A
100
AcDbEntity
  8
0
  6
Continuous
 62
     7
370
    15
100
AcDbLine
 10
9.1171428571
 20
0.52
 30
0.0
 11
9.1171428571
 21
2.02
 31
0.0
  0
LINE
  5
1BC
330
17A
100
AcDbEntity
  8
0
  6
Continuous
 62
     7
370
    15
100
AcDbLine
 10
9.1171428571
 20
2.02
 30
0.0
 11
7.6171428571
 21
2.02
 31
0.0
  0
LINE
  5
1BD
330
17A
100
AcDbEntity
  8
0
  6
Continuous
 62
     7
370
    15
100
AcDbLine
 10
7.6171428571
 20
2.02
 30
0.0
 11
7.6171428571
 21
0.52
 31
0.0
  0
LINE
  5
1BE
330
17A
100
AcDbEntity
  8
0
  6
Continuous
 62
     7
370
    15
100
AcDbLine
 10
7.6171428571
 20
0.52
 30
0.0
 11
9.1171428571
 21
0.52
 31
0.0
  0
LINE
  5
1BF
330
17A
100
AcDbEntity
  8
0
  6
Continuous
 62
     7
370
    15
100
AcDbLine
 10
11.6557142857
 20
0.52
 30
0.0
 11
11.6557142857
 21
2.02
 31
0.0
  0
LINE
  5
1C0
330
17A
100
AcDbEntity
  8
0
  6
Continuous
 62
     7
370
    15
100
AcDbLine
 10
11.6557142857
 20
2.02
 30
0.0
 11
10.1557142857
 21
2.02
 31
0.0
  0
LINE
  5
1C1
330
17A
100
AcDbEntity
  8
0
  6
Continuous
 62
     7
370
    15
100
AcDbLine
 10
10.1557142857
 20
2.02
 30
0.0
 11
10.1557142857
 21
0.52
 31
0.0
  0
LINE
  5
1C2
330
17A
100
AcDbEntity
  8
0
  6
Continuous
 62
     7
370
    15
100
AcDbLine
 10
14.1942857143
 20
0.52
 30
0.0
 11
14.1942857143
 21
2.02
 31
0.0
  0
LINE
  5
1C3
330
17A
100
AcDbEntity
  8
0
  6
Continuous
 62
     7
370
    15
100
AcDbLine
 10
14.1942857143
 20
2.02
 30
0.0
 11
12.6942857143
 21
2.02
 31
0.0
  0
LINE
  5
1C4
330
17A
100
AcDbEntity
  8
0
  6
Continuous
 62
     7
370
    15
100
AcDbLine
 10
12.6942857143
 20
2.02
 30
0.0
 11
12.6942857143
 21
0.52
 31
0.0
  0
LINE
  5
1C5
330
17A
100
AcDbEntity
  8
0
  6
Continuous
 62
     7
370
    15
100
AcDbLine
 10
12.6942857143
 20
0.52
 30
0.0
 11
14.1942857143
 21
0.52
 31
0.0
  0
LINE
  5
1C6
330
17A
100
AcDbEntity
  8
0
  6
Continuous
 62
     7
370
    15
100
AcDbLine
 10
16.7328571429
 20
0.52
 30
0.0
 11
16.7328571429
 21
2.02
 31
0.0
  0
LINE
  5
1C7
330
17A
100
AcDbEntity
  8
0
  6
Continuous
 62
     7
370
    15
100
AcDbLine
 10
16.7328571429
 20
2.02
 30
0.0
 11
15.2328571429
 21
2.02
 31
0.0
  0
LINE
  5
1C8
330
17A
100
AcDbEntity
  8
0
  6
Continuous
 62
     7
370
    15
100
AcDbLine
 10
15.2328571429
 20
2.02
 30
0.0
 11
15.2328571429
 21
0.52
 31
0.0
  0
LINE
  5
1C9
330
17A
100
AcDbEntity
  8
0
  6
Continuous
 62
     7
370
    15
100
AcDbLine
 10
15.2328571429
 20
0.52
 30
0.0
 11
16.7328571429
 21
0.52
 31
0.0
  0
LINE
  5
1CA
330
17A
100
AcDbEntity
  8
0
  6
Continuous
 62
     7
370
    15
100
AcDbLine
 10
19.2714285714
 20
0.52
 30
0.0
 11
19.2714285714
 21
2.02
 31
0.0
  0
LINE
  5
1CB
330
17A
100
AcDbEntity
  8
0
  6
Continuous
 62
     7
370
    15
100
AcDbLine
 10
19.2714285714
 20
2.02
 30
0.0
 11
17.7714285714
 21
2.02
 31
0.0
  0
LINE
  5
1CC
330
17A
100
AcDbEntity
  8
0
  6
Continuous
 62
     7
370
    15
100
AcDbLine
 10
17.7714285714
 20
2.02
 30
0.0
 11
17.7714285714
 21
0.52
 31
0.0
  0
LINE
  5
1CD
330
17A
100
AcDbEntity
  8
0
  6
Continuous
 62
     7
370
    15
100
AcDbLine
 10
17.7714285714
 20
0.52
 30
0.0
 11
19.2714285714
 21
0.52
 31
0.0
  0
LINE
  5
1CE
330
17A
100
AcDbEntity
  8
0
  6
Continuous
 62
     7
370
    15
100
AcDbLine
 10
4.04
 20
0.52
 30
0.0
 11
4.04
 21
2.02
 31
0.0
  0
LINE
  5
1CF
330
17A
100
AcDbEntity
  8
0
  6
Continuous
 62
     7
370
    15
100
AcDbLine
 10
21.35
 20
2.02
 30
0.0
 11
21.35
 21
13.7
 31
0.0
  0
LINE
  5
1D0
330
17A
100
AcDbEntity
  8
0
  6
Continuous
 62
     7
370
    15
100
AcDbLine
 10
21.81
 20
2.02
 30
0.0
 11
20.31
 21
2.02
 31
0.0
  0
LINE
  5
1D1
330
17A
100
AcDbEntity
  8
0
  6
Continuous
 62
     7
370
    15
100
AcDbLine
 10
20.31
 20
2.02
 30
0.0
 11
20.31
 21
0.52
 31
0.0
  0
LINE
  5
1D2
330
17A
100
AcDbEntity
  8
0
  6
Continuous
 62
     7
370
    15
100
AcDbLine
 10
20.31
 20
0.52
 30
0.0
 11
21.81
 21
0.52
 31
0.0
  0
LINE
  5
1D3
330
17A
100
AcDbEntity
  8
0
  6
Continuous
 62
     7
370
    15
100
AcDbLine
 10
21.35
 20
0.0
 30
0.0
 11
21.35
 21
0.52
 31
0.0
  0
LINE
  5
1D4
330
17A
100
AcDbEntity
  8
0
  6
Continuous
 62
     7
370
    15
100
AcDbLine
 10
10.1557142857
 20
0.52
 30
0.0
 11
11.6557142857
 21
0.52
 31
0.0
  0
LINE
  5
1D5
330
17A
100
AcDbEntity
  8
0
  6
Continuous
 62
     7
370
    15
100
AcDbLine
 10
21.81
 20
0.52
 30
0.0
 11
21.81
 21
2.02
 31
0.0
  0
LINE
  5
1D6
330
17A
100
AcDbEntity
  8
0
  6
Continuous
 62
     7
370
    15
100
AcDbLine
 10
24.35
 20
13.7
 30
0.0
 11
24.35
 21
0.0
 31
0.0
  0
VIEWPORT
  5
32D
330
17A
100
AcDbEntity
  8
0
100
AcDbViewport
 10
0.0
 20
0.0
 30
0.0
 40
205.6
 41
156.0
 68
     1
 69
     1
 12
19.6868942762
 22
10.304615345
 13
0.0
 23
0.0
 14
10.0
 24
10.0
 15
10.0
 25
10.0
 16
0.0
 26
0.0
 36
1.0
 17
0.0
 27
0.0
 37
0.0
 42
50.0
 43
0.0
 44
0.0
 45
40.2587043658
 50
0.0
 51
0.0
 72
   100
 90
   557152
  1

281
     0
 71
     1
 74
     0
110
0.0
120
0.0
130
0.0
111
1.0
121
0.0
131
0.0
112
0.0
122
1.0
132
0.0
 79
     0
146
0.0
  0
ENDBLK
  5
17D
330
17A
100
AcDbEntity
  8
0
100
AcDbBlockEnd
  0
BLOCK
  5
1D9
330
1D7
100
AcDbEntity
  8
0
100
AcDbBlockBegin
  2
*Paper_Space2
 70
     0
 10
0.0
 20
0.0
 30
0.0
  3
*Paper_Space2
  1

  0
LINE
  5
1F0
330
1D7
100
AcDbEntity
  8
0
  6
Continuous
 62
     7
370
    15
100
AcDbLine
 10
-48.3145235705
 20
0.52
 30
0.0
 11
-48.3145235705
 21
2.02
 31
0.0
  0
LINE
  5
1F1
330
1D7
100
AcDbEntity
  8
0
  6
Continuous
 62
     7
370
    15
100
AcDbLine
 10
-48.3145235705
 20
2.02
 30
0.0
 11
-48.35
 21
2.02
 31
0.0
  0
LINE
  5
1F2
330
1D7
100
AcDbEntity
  8
0
  6
Continuous
 62
     7
370
    15
100
AcDbLine
 10
-48.35
 20
13.7
 30
0.0
 11
0.0
 21
13.7
 31
0.0
  0
LINE
  5
1F3
330
1D7
100
AcDbEntity
  8
0
  6
Continuous
 62
     7
370
    15
100
AcDbLine
 10
-45.35
 20
13.7
 30
0.0
 11
-45.35
 21
0.0
 31
0.0
  0
LINE
  5
1F4
330
1D7
100
AcDbEntity
  8
0
  6
Continuous
 62
     7
370
    15
100
AcDbLine
 10
-48.35
 20
0.0
 30
0.0
 11
-7.0
 21
0.0
 31
0.0
  0
LINE
  5
1F5
330
1D7
100
AcDbEntity
  8
0
  6
Continuous
 62
     7
370
    15
100
AcDbLine
 10
-48.35
 20
0.0
 30
0.0
 11
-48.35
 21
13.7
 31
0.0
  0
LINE
  5
1F6
330
1D7
100
AcDbEntity
  8
0
  6
Continuous
 62
     7
370
    15
100
AcDbLine
 10
-48.35
 20
0.52
 30
0.0
 11
-48.3145235705
 21
0.52
 31
0.0
  0
LINE
  5
1F7
330
1D7
100
AcDbEntity
  8
0
  6
Continuous
 62
     7
370
    15
100
AcDbLine
 10
-7.0
 20
2.5
 30
0.0
 11
-7.0
 21
0.0
 31
0.0
  0
LINE
  5
1F8
330
1D7
100
AcDbEntity
  8
0
  6
Continuous
 62
     7
370
    15
100
AcDbLine
 10
-3.0
 20
2.5
 30
0.0
 11
-3.0
 21
13.7
 31
0.0
  0
LINE
  5
1F9
330
1D7
100
AcDbEntity
  8
0
  6
Continuous
 62
     7
370
    15
100
AcDbLine
 10
0.0
 20
2.5
 30
0.0
 11
-7.0
 21
2.5
 31
0.0
  0
LINE
  5
1FA
330
1D7
100
AcDbEntity
  8
0
  6
Continuous
 62
     7
370
    15
100
AcDbLine
 10
-12.0
 20
4.7
 30
0.0
 11
-7.0
 21
4.7
 31
0.0
  0
LINE
  5
1FB
330
1D7
100
AcDbEntity
  8
0
  6
Continuous
 62
     7
370
    15
100
AcDbLine
 10
-7.0
 20
4.7
 30
0.0
 11
-7.0
 21
11.2
 31
0.0
  0
LINE
  5
1FC
330
1D7
100
AcDbEntity
  8
0
  6
Continuous
 62
     7
370
    15
100
AcDbLine
 10
-7.0
 20
11.2
 30
0.0
 11
-12.0
 21
11.2
 31
0.0
  0
LINE
  5
1FD
330
1D7
100
AcDbEntity
  8
0
  6
Continuous
 62
     7
370
    15
100
AcDbLine
 10
-12.0
 20
11.2
 30
0.0
 11
-12.0
 21
4.7
 31
0.0
  0
LINE
  5
1FE
330
1D7
100
AcDbEntity
  8
0
  6
Continuous
 62
     7
370
    15
100
AcDbLine
 10
0.0
 20
13.7
 30
0.0
 11
0.0
 21
2.5
 31
0.0
  0
VIEWPORT
  5
32F
330
1D7
100
AcDbEntity
  8
0
100
AcDbViewport
 10
0.0
 20
0.0
 30
0.0
 40
205.6
 41
156.0
 68
     1
 69
     1
 12
19.6868942762
 22
10.304615345
 13
0.0
 23
0.0
 14
10.0
 24
10.0
 15
10.0
 25
10.0
 16
0.0
 26
0.0
 36
1.0
 17
0.0
 27
0.0
 37
0.0
 42
50.0
 43
0.0
 44
0.0
 45
40.2587043658
 50
0.0
 51
0.0
 72
   100
 90
   557152
  1

281
     0
 71
     1
 74
     0
110
0.0
120
0.0
130
0.0
111
1.0
121
0.0
131
0.0
112
0.0
122
1.0
132
0.0
 79
     0
146
0.0
  0
ENDBLK
  5
1DA
330
1D7
100
AcDbEntity
  8
0
100
AcDbBlockEnd
  0
BLOCK
  5
201
330
1FF
100
AcDbEntity
  8
0
100
AcDbBlockBegin
  2
*Paper_Space3
 70
     0
 10
0.0
 20
0.0
 30
0.0
  3
*Paper_Space3
  1

  0
LINE
  5
219
330
1FF
100
AcDbEntity
  8
0
  6
Continuous
 62
     7
370
    15
100
AcDbLine
 10
0.0
 20
13.7
 30
0.0
 11
0.0
 21
0.0
 31
0.0
  0
LINE
  5
21A
330
1FF
100
AcDbEntity
  8
0
  6
Continuous
 62
     7
370
    15
100
AcDbLine
 10
-3.0
 20
2.5
 30
0.0
 11
-3.0
 21
13.7
 31
0.0
  0
LINE
  5
21B
330
1FF
100
AcDbEntity
  8
0
  6
Continuous
 62
     7
370
    15
100
AcDbLine
 10
-21.35
 20
13.7
 30
0.0
 11
-21.35
 21
2.5
 31
0.0
  0
LINE
  5
21C
330
1FF
100
AcDbEntity
  8
0
  6
Continuous
 62
     7
370
    15
100
AcDbLine
 10
-24.35
 20
0.0
 30
0.0
 11
-24.35
 21
13.7
 31
0.0
  0
LINE
  5
21D
330
1FF
100
AcDbEntity
  8
0
  6
Continuous
 62
     7
370
    15
100
AcDbLine
 10
-24.35
 20
13.7
 30
0.0
 11
0.0
 21
13.7
 31
0.0
  0
LINE
  5
21E
330
1FF
100
AcDbEntity
  8
0
  6
Continuous
 62
     7
370
    15
100
AcDbLine
 10
-24.35
 20
2.5
 30
0.0
 11
0.0
 21
2.5
 31
0.0
  0
LINE
  5
21F
330
1FF
100
AcDbEntity
  8
0
  6
Continuous
 62
     7
370
    15
100
AcDbLine
 10
-7.175
 20
2.5
 30
0.0
 11
-7.175
 21
7.65
 31
0.0
  0
LINE
  5
220
330
1FF
100
AcDbEntity
  8
0
  6
Continuous
 62
     7
370
    15
100
AcDbLine
 10
-17.175
 20
7.65
 30
0.0
 11
-17.175
 21
2.5
 31
0.0
  0
LINE
  5
221
330
1FF
100
AcDbEntity
  8
0
  6
Continuous
 62
     7
370
    15
100
AcDbLine
 10
-15.175
 20
8.7
 30
0.0
 11
-9.175
 21
8.7
 31
0.0
  0
LINE
  5
222
330
1FF
100
AcDbEntity
  8
0
  6
Continuous
 62
     7
370
    15
100
AcDbLine
 10
-7.175
 20
7.65
 30
0.0
 11
-17.175
 21
7.65
 31
0.0
  0
LINE
  5
223
330
1FF
100
AcDbEntity
  8
0
  6
Continuous
 62
     7
370
    15
100
AcDbLine
 10
-9.175
 20
11.7
 30
0.0
 11
-15.175
 21
11.7
 31
0.0
  0
LINE
  5
224
330
1FF
100
AcDbEntity
  8
0
  6
Continuous
 62
     7
370
    15
100
AcDbLine
 10
-24.35
 20
0.0
 30
0.0
 11
0.0
 21
0.0
 31
0.0
  0
ARC
  5
225
330
1FF
100
AcDbEntity
  8
0
  6
Continuous
 62
     7
370
    15
100
AcDbCircle
 10
-15.175
 20
10.2
 30
0.0
 40
1.500000000000004
100
AcDbArc
 50
90.0
 51
270.0
  0
ARC
  5
226
330
1FF
100
AcDbEntity
  8
0
  6
Continuous
 62
     7
370
    15
100
AcDbCircle
 10
-9.175
 20
10.2
 30
0.0
 40
1.500000000000004
100
AcDbArc
 50
270.0
 51
90.0
  0
VIEWPORT
  5
331
330
1FF
100
AcDbEntity
  8
0
100
AcDbViewport
 10
0.0
 20
0.0
 30
0.0
 40
205.6
 41
156.0
 68
     1
 69
     1
 12
19.6868942762
 22
10.304615345
 13
0.0
 23
0.0
 14
10.0
 24
10.0
 15
10.0
 25
10.0
 16
0.0
 26
0.0
 36
1.0
 17
0.0
 27
0.0
 37
0.0
 42
50.0
 43
0.0
 44
0.0
 45
40.2587043658
 50
0.0
 51
0.0
 72
   100
 90
   557152
  1

281
     0
 71
     1
 74
     0
110
0.0
120
0.0
130
0.0
111
1.0
121
0.0
131
0.0
112
0.0
122
1.0
132
0.0
 79
     0
146
0.0
  0
ENDBLK
  5
202
330
1FF
100
AcDbEntity
  8
0
100
AcDbBlockEnd
  0
BLOCK
  5
229
330
227
100
AcDbEntity
  8
0
100
AcDbBlockBegin
  2
*Paper_Space4
 70
     0
 10
0.0
 20
0.0
 30
0.0
  3
*Paper_Space4
  1

  0
CIRCLE
  5
22B
330
227
100
AcDbEntity
  8
0
  6
Continuous
 62
     7
370
    15
100
AcDbCircle
 10
9.0
 20
-4.0
 30
0.0
 40
1.0
  0
CIRCLE
  5
22C
330
227
100
AcDbEntity
  8
0
  6
Continuous
 62
     7
370
    15
100
AcDbCircle
 10
9.0
 20
-20.35
 30
0.0
 40
1.000000000000004
  0
LINE
  5
23D
330
227
100
AcDbEntity
  8
0
  6
Continuous
 62
     7
370
    15
100
AcDbLine
 10
7.0
 20
-24.35
 30
0.0
 11
7.0
 21
0.0
 31
0.0
  0
LINE
  5
23E
330
227
100
AcDbEntity
  8
0
  6
Continuous
 62
     7
370
    15
100
AcDbLine
 10
45.35
 20
-24.35
 30
0.0
 11
3.0
 21
-24.35
 31
0.0
  0
LINE
  5
23F
330
227
100
AcDbEntity
  8
0
  6
Continuous
 62
     7
370
    15
100
AcDbLine
 10
48.35
 20
-3.0
 30
0.0
 11
48.35
 21
-21.35
 31
0.0
  0
LINE
  5
240
330
227
100
AcDbEntity
  8
0
  6
Continuous
 62
     7
370
    15
100
AcDbLine
 10
3.0
 20
0.0
 30
0.0
 11
45.35
 21
0.0
 31
0.0
  0
LINE
  5
241
330
227
100
AcDbEntity
  8
0
  6
Continuous
 62
     7
370
    15
100
AcDbLine
 10
1.0
 20
-17.175
 30
0.0
 11
1.0
 21
-7.175
 31
0.0
  0
LINE
  5
242
330
227
100
AcDbEntity
  8
0
  6
Continuous
 62
     7
370
    15
100
AcDbLine
 10
1.0
 20
-7.175
 30
0.0
 11
0.0
 21
-7.175
 31
0.0
  0
LINE
  5
243
330
227
100
AcDbEntity
  8
0
  6
Continuous
 62
     7
370
    15
100
AcDbLine
 10
1.0
 20
-17.175
 30
0.0
 11
0.0
 21
-17.175
 31
0.0
  0
LINE
  5
244
330
227
100
AcDbEntity
  8
0
  6
Continuous
 62
     7
370
    15
100
AcDbLine
 10
0.0
 20
-3.0
 30
0.0
 11
0.0
 21
-21.35
 31
0.0
  0
ARC
  5
245
330
227
100
AcDbEntity
  8
0
  6
Continuous
 62
     7
370
    15
100
AcDbCircle
 10
45.35
 20
-21.35
 30
0.0
 40
3.000000000000021
100
AcDbArc
 50
270.0
 51
0.0
  0
ARC
  5
246
330
227
100
AcDbEntity
  8
0
  6
Continuous
 62
     7
370
    15
100
AcDbCircle
 10
45.35
 20
-3.0
 30
0.0
 40
3.0
100
AcDbArc
 50
0.0
 51
90.0
  0
ARC
  5
247
330
227
100
AcDbEntity
  8
0
  6
Continuous
 62
     7
370
    15
100
AcDbCircle
 10
3.0
 20
-21.35
 30
0.0
 40
3.000000000000011
100
AcDbArc
 50
180.0
 51
270.0
  0
ARC
  5
248
330
227
100
AcDbEntity
  8
0
  6
Continuous
 62
     7
370
    15
100
AcDbCircle
 10
3.0
 20
-3.0
 30
0.0
 40
3.000000000000002
100
AcDbArc
 50
90.0
 51
180.0
  0
VIEWPORT
  5
333
330
227
100
AcDbEntity
  8
0
100
AcDbViewport
 10
0.0
 20
0.0
 30
0.0
 40
205.6
 41
156.0
 68
     1
 69
     1
 12
19.6868942762
 22
10.304615345
 13
0.0
 23
0.0
 14
10.0
 24
10.0
 15
10.0
 25
10.0
 16
0.0
 26
0.0
 36
1.0
 17
0.0
 27
0.0
 37
0.0
 42
50.0
 43
0.0
 44
0.0
 45
40.2587043658
 50
0.0
 51
0.0
 72
   100
 90
   557152
  1

281
     0
 71
     1
 74
     0
110
0.0
120
0.0
130
0.0
111
1.0
121
0.0
131
0.0
112
0.0
122
1.0
132
0.0
 79
     0
146
0.0
  0
ENDBLK
  5
22A
330
227
100
AcDbEntity
  8
0
100
AcDbBlockEnd
  0
BLOCK
  5
24B
330
249
100
AcDbEntity
  8
0
100
AcDbBlockBegin
  2
*Paper_Space5
 70
     0
 10
0.0
 20
0.0
 30
0.0
  3
*Paper_Space5
  1

  0
LWPOLYLINE
  5
268
330
249
100
AcDbEntity
  8
0
  6
Continuous
 62
     7
370
    15
100
AcDbPolyline
 90
       23
 70
   128
 43
0.0
 10
46.1033621334
 20
-0.0390024147
 10
46.2172910306
 20
-0.0882370347
 10
46.3506328792
 20
-0.1169478261
 10
46.4925851156
 20
-0.1228088114
 10
46.6316476138
 20
-0.1053451683
 10
46.7565543572
 20
-0.0659716975
 10
46.8571861444
 20
-0.0078782033
 10
46.9253903865
 20
0.0642289249
 10
46.9556415813
 20
0.1445079963
 10
46.9454889569
 20
0.2264552781
 10
46.8957550187
 20
0.3034318888
 10
46.8104689145
 20
0.3692016412
 10
46.6965400173
 20
0.4184362611
 10
46.5631981687
 20
0.4471470525
 10
46.4212459324
 20
0.4530080378
 10
46.2821834342
 20
0.4355443948
 10
46.1572766907
 20
0.3961709239
 10
46.0566449035
 20
0.3380774297
 10
45.9884406615
 20
0.2659703016
 10
45.9581894667
 20
0.1856912302
 10
45.968342091
 20
0.1037439484
 10
46.0180760292
 20
0.0267673377
 10
46.1033621334
 20
-0.0390024147
  0
LWPOLYLINE
  5
269
330
249
100
AcDbEntity
  8
0
  6
Continuous
 62
     7
370
    15
100
AcDbPolyline
 90
       28
 70
   128
 43
0.0
 10
48.4014591722
 20
-4.4278595161
 10
48.3871640561
 20
-4.2948814582
 10
48.3450493612
 20
-4.1855770716
 10
48.2773855016
 20
-4.105838984
 10
48.1878202536
 20
-4.0599658964
 10
48.0811821027
 20
-4.0504308388
 10
47.9632199393
 20
-4.0777478486
 10
47.8402931342
 20
-4.1404442587
 10
47.7190287033
 20
-4.2351400895
 10
47.6059640434
 20
-4.3567302643
 10
47.5071944996
 20
-4.4986598251
 10
47.4280447635
 20
-4.6532773127
 10
47.372781818
 20
-4.8122472582
 10
47.3443849028
 20
-4.9669995508
 10
47.3443849028
 20
-5.1091914544
 10
47.372781818
 20
-5.2311573665
 10
47.4280447635
 20
-5.3263220733
 10
47.5071944996
 20
-5.3895552208
 10
47.6059640434
 20
-5.4174478937
 10
47.7190287033
 20
-5.4084963908
 10
47.8402931342
 20
-5.3631832898
 10
47.9632199393
 20
-5.2839514319
 10
48.0811821027
 20
-5.1750722269
 10
48.1878202536
 20
-5.0424153809
 10
48.2773855016
 20
-4.893132459
 10
48.3450493612
 20
-4.735271342
 10
48.3871640561
 20
-4.5773423637
 10
48.4014591722
 20
-4.4278595161
  0
LINE
  5
2BC
330
249
100
AcDbEntity
  8
0
  6
Continuous
 62
     7
370
    15
100
AcDbLine
 10
50.1640223051
 20
-9.7968973419
 30
0.0
 11
50.1640223051
 21
1.389711781
 31
0.0
  0
LINE
  5
2BD
330
249
100
AcDbEntity
  8
0
  6
Continuous
 62
     7
370
    15
100
AcDbLine
 10
1.2426406871
 20
11.1866091228
 30
0.0
 11
1.2426406871
 21
2.0413520297
 31
0.0
  0
LINE
  5
2BE
330
249
100
AcDbEntity
  8
0
  6
Continuous
 62
     7
370
    15
100
AcDbLine
 10
36.3099332139
 20
-7.3254448127
 30
0.0
 11
36.3099332139
 21
-16.8626414956
 31
0.0
  0
LINE
  5
2BF
330
249
100
AcDbEntity
  8
0
  6
Continuous
 62
     7
370
    15
100
AcDbLine
 10
35.9595784707
 20
-17.0359337389
 30
0.0
 11
35.9595784707
 21
-18.2607449567
 31
0.0
  0
LINE
  5
2C0
330
249
100
AcDbEntity
  8
0
  6
Continuous
 62
     7
370
    15
100
AcDbLine
 10
36.3099332139
 20
-18.0874527134
 30
0.0
 11
36.3099332139
 21
-18.5120539356
 31
0.0
  0
LINE
  5
2C1
330
249
100
AcDbEntity
  8
0
  6
Continuous
 62
     7
370
    15
100
AcDbLine
 10
32.0672925268
 20
-18.5120539356
 30
0.0
 11
32.0672925268
 21
-7.3254448127
 31
0.0
  0
LINE
  5
2C2
330
249
100
AcDbEntity
  8
0
  6
Continuous
 62
     7
370
    15
100
AcDbLine
 10
36.3099332139
 20
-7.3254448127
 30
0.0
 11
49.2853426487
 21
0.1650996132
 31
0.0
  0
LINE
  5
2C3
330
249
100
AcDbEntity
  8
0
  6
Continuous
 62
     7
370
    15
100
AcDbLine
 10
2.1213203436
 20
9.9619969551
 30
0.0
 11
32.0672925268
 21
-7.3254448127
 31
0.0
  0
LINE
  5
2C4
330
249
100
AcDbEntity
  8
0
  6
Continuous
 62
     7
370
    15
100
AcDbLine
 10
15.0967297783
 20
19.9017657165
 30
0.0
 11
2.1213203436
 21
12.4112212906
 31
0.0
  0
LINE
  5
2C5
330
249
100
AcDbEntity
  8
0
  6
Continuous
 62
     7
370
    15
100
AcDbLine
 10
49.2853426487
 20
2.6143239487
 30
0.0
 11
19.3393704655
 21
19.9017657165
 31
0.0
  0
LINE
  5
2C6
330
249
100
AcDbEntity
  8
0
  6
Continuous
 62
     7
370
    15
100
AcDbLine
 10
7.7781745931
 20
10.370201011
 30
0.0
 11
12.7279220614
 21
7.5127726196
 31
0.0
  0
LINE
  5
2C7
330
249
100
AcDbEntity
  8
0
  6
Continuous
 62
     7
370
    15
100
AcDbLine
 10
15.5563491861
 20
7.5127726196
 30
0.0
 11
23.5820111526
 21
12.1458886542
 31
0.0
  0
LINE
  5
2C8
330
249
100
AcDbEntity
  8
0
  6
Continuous
 62
     7
370
    15
100
AcDbLine
 10
23.5820111526
 20
13.7787048779
 30
0.0
 11
18.6322636843
 21
16.6361332693
 31
0.0
  0
LINE
  5
2C9
330
249
100
AcDbEntity
  8
0
  6
Continuous
 62
     7
370
    15
100
AcDbLine
 10
18.6322636843
 20
16.6361332693
 30
0.0
 11
7.7781745931
 21
10.370201011
 31
0.0
  0
LINE
  5
2CA
330
249
100
AcDbEntity
  8
0
  6
Continuous
 62
     7
370
    15
100
AcDbLine
 10
35.4260497374
 20
-3.9985817571
 30
0.0
 11
43.5577777211
 21
0.6957648859
 31
0.0
  0
LINE
  5
2CB
330
249
100
AcDbEntity
  8
0
  6
Continuous
 62
     7
370
    15
100
AcDbLine
 10
43.5577777211
 20
0.6957648859
 30
0.0
 11
28.001428535
 21
9.676254116
 31
0.0
  0
LINE
  5
2CC
330
249
100
AcDbEntity
  8
0
  6
Continuous
 62
     7
370
    15
100
AcDbLine
 10
28.001428535
 20
9.676254116
 30
0.0
 11
19.8697005513
 21
4.981907473
 31
0.0
  0
LINE
  5
2CD
330
249
100
AcDbEntity
  8
0
  6
Continuous
 62
     7
370
    15
100
AcDbLine
 10
19.8697005513
 20
4.981907473
 30
0.0
 11
35.4260497374
 21
-3.9985817571
 31
0.0
  0
LINE
  5
2CE
330
249
100
AcDbEntity
  8
0
  6
Continuous
 62
     7
370
    15
100
AcDbLine
 10
38.840365338
 20
-16.6266653419
 30
0.0
 11
38.840365338
 21
-15.4018541241
 31
0.0
  0
LINE
  5
2CF
330
249
100
AcDbEntity
  8
0
  6
Continuous
 62
     7
370
    15
100
AcDbLine
 10
38.840365338
 20
-15.4018541241
 30
0.0
 11
37.7797051663
 21
-16.0141602079
 31
0.0
  0
LINE
  5
2D0
330
249
100
AcDbEntity
  8
0
  6
Continuous
 62
     7
370
    15
100
AcDbLine
 10
37.7797051663
 20
-16.0141602079
 30
0.0
 11
37.7797051663
 21
-17.2389714258
 31
0.0
  0
LINE
  5
2D1
330
249
100
AcDbEntity
  8
0
  6
Continuous
 62
     7
370
    15
100
AcDbLine
 10
37.7797051663
 20
-17.2389714258
 30
0.0
 11
38.840365338
 21
-16.6266653419
 31
0.0
  0
LINE
  5
2D2
330
249
100
AcDbEntity
  8
0
  6
Continuous
 62
     7
370
    15
100
AcDbLine
 10
40.6354064097
 20
-15.5904101885
 30
0.0
 11
40.6354064097
 21
-14.3655989707
 31
0.0
  0
LINE
  5
2D3
330
249
100
AcDbEntity
  8
0
  6
Continuous
 62
     7
370
    15
100
AcDbLine
 10
40.6354064097
 20
-14.3655989707
 30
0.0
 11
39.5747462379
 21
-14.9779050546
 31
0.0
  0
LINE
  5
2D4
330
249
100
AcDbEntity
  8
0
  6
Continuous
 62
     7
370
    15
100
AcDbLine
 10
39.5747462379
 20
-14.9779050546
 30
0.0
 11
39.5747462379
 21
-16.2027162724
 31
0.0
  0
LINE
  5
2D5
330
249
100
AcDbEntity
  8
0
  6
Continuous
 62
     7
370
    15
100
AcDbLine
 10
39.5747462379
 20
-16.2027162724
 30
0.0
 11
40.6354064097
 21
-15.5904101885
 31
0.0
  0
LINE
  5
2D6
330
249
100
AcDbEntity
  8
0
  6
Continuous
 62
     7
370
    15
100
AcDbLine
 10
42.4304474814
 20
-14.5541550352
 30
0.0
 11
42.4304474814
 21
-13.3293438173
 31
0.0
  0
LINE
  5
2D7
330
249
100
AcDbEntity
  8
0
  6
Continuous
 62
     7
370
    15
100
AcDbLine
 10
42.4304474814
 20
-13.3293438173
 30
0.0
 11
41.3697873096
 21
-13.9416499012
 31
0.0
  0
LINE
  5
2D8
330
249
100
AcDbEntity
  8
0
  6
Continuous
 62
     7
370
    15
100
AcDbLine
 10
41.3697873096
 20
-13.9416499012
 30
0.0
 11
41.3697873096
 21
-15.166461119
 31
0.0
  0
LINE
  5
2D9
330
249
100
AcDbEntity
  8
0
  6
Continuous
 62
     7
370
    15
100
AcDbLine
 10
41.3697873096
 20
-15.166461119
 30
0.0
 11
42.4304474814
 21
-14.5541550352
 31
0.0
  0
LINE
  5
2DA
330
249
100
AcDbEntity
  8
0
  6
Continuous
 62
     7
370
    15
100
AcDbLine
 10
44.225488553
 20
-13.5178998818
 30
0.0
 11
44.225488553
 21
-12.293088664
 31
0.0
  0
LINE
  5
2DB
330
249
100
AcDbEntity
  8
0
  6
Continuous
 62
     7
370
    15
100
AcDbLine
 10
44.225488553
 20
-12.293088664
 30
0.0
 11
43.1648283813
 21
-12.9053947478
 31
0.0
  0
LINE
  5
2DC
330
249
100
AcDbEntity
  8
0
  6
Continuous
 62
     7
370
    15
100
AcDbLine
 10
43.1648283813
 20
-12.9053947478
 30
0.0
 11
43.1648283813
 21
-14.1302059657
 31
0.0
  0
LINE
  5
2DD
330
249
100
AcDbEntity
  8
0
  6
Continuous
 62
     7
370
    15
100
AcDbLine
 10
43.1648283813
 20
-14.1302059657
 30
0.0
 11
44.225488553
 21
-13.5178998818
 31
0.0
  0
LINE
  5
2DE
330
249
100
AcDbEntity
  8
0
  6
Continuous
 62
     7
370
    15
100
AcDbLine
 10
46.0205296247
 20
-12.4816447284
 30
0.0
 11
46.0205296247
 21
-11.2568335106
 31
0.0
  0
LINE
  5
2DF
330
249
100
AcDbEntity
  8
0
  6
Continuous
 62
     7
370
    15
100
AcDbLine
 10
46.0205296247
 20
-11.2568335106
 30
0.0
 11
44.9598694529
 21
-11.8691395945
 31
0.0
  0
LINE
  5
2E0
330
249
100
AcDbEntity
  8
0
  6
Continuous
 62
     7
370
    15
100
AcDbLine
 10
44.9598694529
 20
-11.8691395945
 30
0.0
 11
44.9598694529
 21
-13.0939508123
 31
0.0
  0
LINE
  5
2E1
330
249
100
AcDbEntity
  8
0
  6
Continuous
 62
     7
370
    15
100
AcDbLine
 10
44.9598694529
 20
-13.0939508123
 30
0.0
 11
46.0205296247
 21
-12.4816447284
 31
0.0
  0
LINE
  5
2E2
330
249
100
AcDbEntity
  8
0
  6
Continuous
 62
     7
370
    15
100
AcDbLine
 10
47.8155706964
 20
-11.4453895751
 30
0.0
 11
47.8155706964
 21
-10.2205783572
 31
0.0
  0
LINE
  5
2E3
330
249
100
AcDbEntity
  8
0
  6
Continuous
 62
     7
370
    15
100
AcDbLine
 10
47.8155706964
 20
-10.2205783572
 30
0.0
 11
46.7549105246
 21
-10.8328844411
 31
0.0
  0
LINE
  5
2E4
330
249
100
AcDbEntity
  8
0
  6
Continuous
 62
     7
370
    15
100
AcDbLine
 10
46.7549105246
 20
-10.8328844411
 30
0.0
 11
46.7549105246
 21
-12.0576956589
 31
0.0
  0
LINE
  5
2E5
330
249
100
AcDbEntity
  8
0
  6
Continuous
 62
     7
370
    15
100
AcDbLine
 10
46.7549105246
 20
-12.0576956589
 30
0.0
 11
47.8155706964
 21
-11.4453895751
 31
0.0
  0
LINE
  5
2E6
330
249
100
AcDbEntity
  8
0
  6
Continuous
 62
     7
370
    15
100
AcDbLine
 10
36.3099332139
 20
-18.0874527134
 30
0.0
 11
37.0453242664
 21
-17.6629204953
 31
0.0
  0
LINE
  5
2E7
330
249
100
AcDbEntity
  8
0
  6
Continuous
 62
     7
370
    15
100
AcDbLine
 10
37.0453242664
 20
-17.6629204953
 30
0.0
 11
37.0453242664
 21
-16.4381092774
 31
0.0
  0
LINE
  5
2E8
330
249
100
AcDbEntity
  8
0
  6
Continuous
 62
     7
370
    15
100
AcDbLine
 10
37.0453242664
 20
-16.4381092774
 30
0.0
 11
36.3099332139
 21
-16.8626414956
 31
0.0
  0
LINE
  5
2E9
330
249
100
AcDbEntity
  8
0
  6
Continuous
 62
     7
370
    15
100
AcDbLine
 10
49.2853426487
 20
-9.3720970696
 30
0.0
 11
49.2853426487
 21
0.1650996132
 31
0.0
  0
LINE
  5
2EA
330
249
100
AcDbEntity
  8
0
  6
Continuous
 62
     7
370
    15
100
AcDbLine
 10
49.2853426487
 20
-9.3720970696
 30
0.0
 11
48.5499515963
 21
-9.7966292877
 31
0.0
  0
LINE
  5
2EB
330
249
100
AcDbEntity
  8
0
  6
Continuous
 62
     7
370
    15
100
AcDbLine
 10
48.5499515963
 20
-9.7966292877
 30
0.0
 11
48.5499515963
 21
-11.0214405056
 31
0.0
  0
LINE
  5
2EC
330
249
100
AcDbEntity
  8
0
  6
Continuous
 62
     7
370
    15
100
AcDbLine
 10
48.5499515963
 20
-11.0214405056
 30
0.0
 11
49.2853426487
 21
-10.5969082874
 31
0.0
  0
LINE
  5
2ED
330
249
100
AcDbEntity
  8
0
  6
Continuous
 62
     7
370
    15
100
AcDbLine
 10
49.2853426487
 20
-11.0215095096
 30
0.0
 11
49.2853426487
 21
-10.5969082874
 31
0.0
  0
LINE
  5
2EE
330
249
100
AcDbEntity
  8
0
  6
Continuous
 62
     7
370
    15
100
AcDbLine
 10
36.3099332139
 20
-18.5120539356
 30
0.0
 11
49.2853426487
 21
-11.0215095096
 31
0.0
  0
LINE
  5
2EF
330
249
100
AcDbEntity
  8
0
  6
Continuous
 62
     7
370
    15
100
AcDbLine
 10
4.9497474683
 20
-2.8574283914
 30
0.0
 11
32.0672925268
 21
-18.5120539356
 31
0.0
  0
LINE
  5
2F0
330
249
100
AcDbEntity
  8
0
  6
Continuous
 62
     7
370
    15
100
AcDbLine
 10
4.9497474683
 20
-0.8160763617
 30
0.0
 11
4.9497474683
 21
-2.8574283914
 31
0.0
  0
LINE
  5
2F1
330
249
100
AcDbEntity
  8
0
  6
Continuous
 62
     7
370
    15
100
AcDbLine
 10
4.9497474683
 20
-0.8160763617
 30
0.0
 11
2.1213203436
 21
0.816739862
 31
0.0
  0
LINE
  5
2F2
330
249
100
AcDbEntity
  8
0
  6
Continuous
 62
     7
370
    15
100
AcDbLine
 10
2.1213203436
 20
9.9619969551
 30
0.0
 11
2.1213203436
 21
0.816739862
 31
0.0
  0
LINE
  5
2F3
330
249
100
AcDbEntity
  8
0
  6
Continuous
 62
     7
370
    15
100
AcDbLine
 10
23.9355645432
 20
-10.3882358827
 30
0.0
 11
23.9355645432
 21
-5.0807206054
 31
0.0
  0
LINE
  5
2F4
330
249
100
AcDbEntity
  8
0
  6
Continuous
 62
     7
370
    15
100
AcDbLine
 10
23.9355645432
 20
-5.0807206054
 30
0.0
 11
20.4000306372
 21
-3.0397003259
 31
0.0
  0
LINE
  5
2F5
330
249
100
AcDbEntity
  8
0
  6
Continuous
 62
     7
370
    15
100
AcDbLine
 10
20.4000306372
 20
-3.0397003259
 30
0.0
 11
20.4000306372
 21
-8.3472156031
 31
0.0
  0
LINE
  5
2F6
330
249
100
AcDbEntity
  8
0
  6
Continuous
 62
     7
370
    15
100
AcDbLine
 10
20.4000306372
 20
-8.3472156031
 30
0.0
 11
23.9355645432
 21
-10.3882358827
 31
0.0
  0
LINE
  5
2F7
330
249
100
AcDbEntity
  8
0
  6
Continuous
 62
     7
370
    15
100
AcDbLine
 10
42.8505560058
 20
0.28749448
 30
0.0
 11
28.001428535
 21
8.8597133041
 31
0.0
  0
LINE
  5
2F8
330
249
100
AcDbEntity
  8
0
  6
Continuous
 62
     7
370
    15
100
AcDbLine
 10
28.001428535
 20
8.8597133041
 30
0.0
 11
20.5769222666
 21
4.573637067
 31
0.0
  0
LINE
  5
2F9
330
249
100
AcDbEntity
  8
0
  6
Continuous
 62
     7
370
    15
100
AcDbLine
 10
36.3382174852
 20
-17.2547164393
 30
0.0
 11
36.3382174852
 21
-16.8463133333
 31
0.0
  0
LINE
  5
2FA
330
249
100
AcDbEntity
  8
0
  6
Continuous
 62
     7
370
    15
100
AcDbLine
 10
35.9595784707
 20
-17.4733000897
 30
0.0
 11
36.3382174852
 21
-17.2547164393
 31
0.0
  0
LINE
  5
2FB
330
249
100
AcDbEntity
  8
0
  6
Continuous
 62
     7
370
    15
100
AcDbLine
 10
36.3382174852
 20
-17.2547164393
 30
0.0
 11
37.0453242664
 21
-17.6629204953
 31
0.0
  0
LINE
  5
2FC
330
249
100
AcDbEntity
  8
0
  6
Continuous
 62
     7
370
    15
100
AcDbLine
 10
38.1332585568
 20
-16.218461286
 30
0.0
 11
38.1332585568
 21
-15.81005818
 31
0.0
  0
LINE
  5
2FD
330
249
100
AcDbEntity
  8
0
  6
Continuous
 62
     7
370
    15
100
AcDbLine
 10
37.7797051663
 20
-16.4225633139
 30
0.0
 11
38.1332585568
 21
-16.218461286
 31
0.0
  0
LINE
  5
2FE
330
249
100
AcDbEntity
  8
0
  6
Continuous
 62
     7
370
    15
100
AcDbLine
 10
38.1332585568
 20
-16.218461286
 30
0.0
 11
38.840365338
 21
-16.6266653419
 31
0.0
  0
LINE
  5
2FF
330
249
100
AcDbEntity
  8
0
  6
Continuous
 62
     7
370
    15
100
AcDbLine
 10
21.1071374184
 20
-7.9390115472
 30
0.0
 11
23.9355645432
 21
-9.5718277709
 31
0.0
  0
LINE
  5
300
330
249
100
AcDbEntity
  8
0
  6
Continuous
 62
     7
370
    15
100
AcDbLine
 10
21.1071374184
 20
-3.4479043818
 30
0.0
 11
21.1071374184
 21
-7.9390115472
 31
0.0
  0
LINE
  5
301
330
249
100
AcDbEntity
  8
0
  6
Continuous
 62
     7
370
    15
100
AcDbLine
 10
39.9282996285
 20
-15.1822061326
 30
0.0
 11
39.9282996285
 21
-14.7738030266
 31
0.0
  0
LINE
  5
302
330
249
100
AcDbEntity
  8
0
  6
Continuous
 62
     7
370
    15
100
AcDbLine
 10
39.5747462379
 20
-15.3863081606
 30
0.0
 11
39.9282996285
 21
-15.1822061326
 31
0.0
  0
LINE
  5
303
330
249
100
AcDbEntity
  8
0
  6
Continuous
 62
     7
370
    15
100
AcDbLine
 10
39.9282996285
 20
-15.1822061326
 30
0.0
 11
40.6354064097
 21
-15.5904101885
 31
0.0
  0
LINE
  5
304
330
249
100
AcDbEntity
  8
0
  6
Continuous
 62
     7
370
    15
100
AcDbLine
 10
49.5855261442
 20
-10.3946527993
 30
0.0
 11
49.5855261442
 21
-9.1698415815
 31
0.0
  0
LINE
  5
305
330
249
100
AcDbEntity
  8
0
  6
Continuous
 62
     7
370
    15
100
AcDbLine
 10
21.1071374184
 20
-7.9390115472
 30
0.0
 11
20.4000306372
 21
-8.3472156031
 31
0.0
  0
LINE
  5
306
330
249
100
AcDbEntity
  8
0
  6
Continuous
 62
     7
370
    15
100
AcDbLine
 10
28.001428535
 20
8.8597133041
 30
0.0
 11
28.001428535
 21
9.676254116
 31
0.0
  0
LINE
  5
307
330
249
100
AcDbEntity
  8
0
  6
Continuous
 62
     7
370
    15
100
AcDbLine
 10
41.7233407002
 20
-14.1459509792
 30
0.0
 11
41.7233407002
 21
-13.7375478732
 31
0.0
  0
LINE
  5
308
330
249
100
AcDbEntity
  8
0
  6
Continuous
 62
     7
370
    15
100
AcDbLine
 10
41.3697873096
 20
-14.3500530072
 30
0.0
 11
41.7233407002
 21
-14.1459509792
 31
0.0
  0
LINE
  5
309
330
249
100
AcDbEntity
  8
0
  6
Continuous
 62
     7
370
    15
100
AcDbLine
 10
41.7233407002
 20
-14.1459509792
 30
0.0
 11
42.4304474814
 21
-14.5541550352
 31
0.0
  0
LINE
  5
30A
330
249
100
AcDbEntity
  8
0
  6
Continuous
 62
     7
370
    15
100
AcDbLine
 10
43.5183817719
 20
-13.1096958259
 30
0.0
 11
43.5183817719
 21
-12.7012927199
 31
0.0
  0
LINE
  5
30B
330
249
100
AcDbEntity
  8
0
  6
Continuous
 62
     7
370
    15
100
AcDbLine
 10
43.1648283813
 20
-13.3137978538
 30
0.0
 11
43.5183817719
 21
-13.1096958259
 31
0.0
  0
LINE
  5
30C
330
249
100
AcDbEntity
  8
0
  6
Continuous
 62
     7
370
    15
100
AcDbLine
 10
43.5183817719
 20
-13.1096958259
 30
0.0
 11
44.225488553
 21
-13.5178998818
 31
0.0
  0
LINE
  5
30D
330
249
100
AcDbEntity
  8
0
  6
Continuous
 62
     7
370
    15
100
AcDbLine
 10
45.3134228435
 20
-12.0734406725
 30
0.0
 11
45.3134228435
 21
-11.6650375665
 31
0.0
  0
LINE
  5
30E
330
249
100
AcDbEntity
  8
0
  6
Continuous
 62
     7
370
    15
100
AcDbLine
 10
44.9598694529
 20
-12.2775427005
 30
0.0
 11
45.3134228435
 21
-12.0734406725
 31
0.0
  0
LINE
  5
30F
330
249
100
AcDbEntity
  8
0
  6
Continuous
 62
     7
370
    15
100
AcDbLine
 10
45.3134228435
 20
-12.0734406725
 30
0.0
 11
46.0205296247
 21
-12.4816447284
 31
0.0
  0
LINE
  5
310
330
249
100
AcDbEntity
  8
0
  6
Continuous
 62
     7
370
    15
100
AcDbLine
 10
47.1084639152
 20
-11.0371855192
 30
0.0
 11
47.1084639152
 21
-10.6287824132
 31
0.0
  0
LINE
  5
311
330
249
100
AcDbEntity
  8
0
  6
Continuous
 62
     7
370
    15
100
AcDbLine
 10
46.7549105246
 20
-11.2412875471
 30
0.0
 11
47.1084639152
 21
-11.0371855192
 31
0.0
  0
LINE
  5
312
330
249
100
AcDbEntity
  8
0
  6
Continuous
 62
     7
370
    15
100
AcDbLine
 10
47.1084639152
 20
-11.0371855192
 30
0.0
 11
47.8155706964
 21
-11.4453895751
 31
0.0
  0
LINE
  5
313
330
249
100
AcDbEntity
  8
0
  6
Continuous
 62
     7
370
    15
100
AcDbLine
 10
48.9035049869
 20
-10.0009303658
 30
0.0
 11
48.9035049869
 21
-9.5925272598
 31
0.0
  0
LINE
  5
314
330
249
100
AcDbEntity
  8
0
  6
Continuous
 62
     7
370
    15
100
AcDbLine
 10
48.5499515963
 20
-10.2050323938
 30
0.0
 11
48.9035049869
 21
-10.0009303658
 31
0.0
  0
LINE
  5
315
330
249
100
AcDbEntity
  8
0
  6
Continuous
 62
     7
370
    15
100
AcDbLine
 10
48.9035049869
 20
-10.0009303658
 30
0.0
 11
49.5855261442
 21
-10.3946527993
 31
0.0
  0
LINE
  5
316
330
249
100
AcDbEntity
  8
0
  6
Continuous
 62
     7
370
    15
100
AcDbLine
 10
18.6322636843
 20
15.8195924574
 30
0.0
 11
8.4853963083
 21
9.9619306051
 31
0.0
  0
LINE
  5
317
330
249
100
AcDbEntity
  8
0
  6
Continuous
 62
     7
370
    15
100
AcDbLine
 10
23.5820111526
 20
12.962164066
 30
0.0
 11
18.6322636843
 21
15.8195924574
 31
0.0
  0
LINE
  5
318
330
249
100
AcDbEntity
  8
0
  6
Continuous
 62
     7
370
    15
100
AcDbLine
 10
18.6322636843
 20
15.8195924574
 30
0.0
 11
18.6322636843
 21
16.6361332693
 31
0.0
  0
LINE
  5
319
330
249
100
AcDbEntity
  8
0
  6
Continuous
 62
     7
370
    15
100
AcDbLine
 10
23.5820111526
 20
12.962164066
 30
0.0
 11
23.5820111526
 21
13.7787048779
 31
0.0
  0
ARC
  5
31A
330
249
100
AcDbEntity
  8
0
  6
Continuous
 62
     7
370
    15
100
AcDbCircle
 10
34.7376710155
 20
-14.1247220947
 30
0.0
 40
3.157247387512276
100
AcDbArc
 50
292.7689964642
 51
299.8667854684
  0
ARC
  5
31B
330
249
100
AcDbEntity
  8
0
  6
Continuous
 62
     7
370
    15
100
AcDbCircle
 10
34.7376710155
 20
-15.3495333126
 30
0.0
 40
3.157247387515286
100
AcDbArc
 50
292.7689964642
 51
299.8667854684
  0
ARC
  5
31C
330
249
100
AcDbEntity
  8
0
  6
Continuous
 62
     7
370
    15
100
AcDbCircle
 10
34.1886128704
 20
-14.4328102016
 30
0.0
 40
4.597850523990605
100
AcDbArc
 50
242.5243123925
 51
297.4756876075
  0
ARC
  5
31D
330
249
100
AcDbEntity
  8
0
  6
Continuous
 62
     7
370
    15
100
AcDbCircle
 10
34.1886128704
 20
-3.2462010788
 30
0.0
 40
4.597850523990626
100
AcDbArc
 50
242.5243123925
 51
297.4756876075
  0
ARC
  5
31E
330
249
100
AcDbEntity
  8
0
  6
Continuous
 62
     7
370
    15
100
AcDbCircle
 10
48.8119660308
 20
1.389711781
 30
0.0
 40
1.312920554981016
100
AcDbArc
 50
291.1341228318
 51
68.8658771682
  0
ARC
  5
31F
330
249
100
AcDbEntity
  8
0
  6
Continuous
 62
     7
370
    15
100
AcDbCircle
 10
2.5946969614
 20
11.1866091228
 30
0.0
 40
1.312920554981018
100
AcDbArc
 50
111.1341228318
 51
248.8658771682
  0
ARC
  5
320
330
249
100
AcDbEntity
  8
0
  6
Continuous
 62
     7
370
    15
100
AcDbCircle
 10
17.2180501219
 20
15.8225219826
 30
0.0
 40
4.597850523990643
100
AcDbArc
 50
62.5243123925
 51
117.4756876075
  0
ARC
  5
321
330
249
100
AcDbEntity
  8
0
  6
Continuous
 62
     7
370
    15
100
AcDbCircle
 10
14.1421356237
 20
10.228459254
 30
0.0
 40
3.061854649748599
100
AcDbArc
 50
242.4914255688
 51
297.5085744312
  0
ARC
  5
322
330
249
100
AcDbEntity
  8
0
  6
Continuous
 62
     7
370
    15
100
AcDbCircle
 10
23.2642277431
 20
12.962296766
 30
0.0
 40
0.8760756248084903
100
AcDbArc
 50
291.2682653033
 51
68.7317346967
  0
ARC
  5
323
330
249
100
AcDbEntity
  8
0
  6
Continuous
 62
     7
370
    15
100
AcDbCircle
 10
48.0376359754
 20
-7.1963852445
 30
0.0
 40
2.508085701960975
100
AcDbArc
 50
299.8330015914
 51
308.1090378495
  0
ARC
  5
324
330
249
100
AcDbEntity
  8
0
  6
Continuous
 62
     7
370
    15
100
AcDbCircle
 10
48.0376359754
 20
-8.4211964623
 30
0.0
 40
2.508085701956245
100
AcDbArc
 50
299.8330015914
 51
308.1090378495
  0
ARC
  5
325
330
249
100
AcDbEntity
  8
0
  6
Continuous
 62
     7
370
    15
100
AcDbCircle
 10
48.638720381
 20
-9.6300075084
 30
0.0
 40
1.534404828060975
100
AcDbArc
 50
294.9239981559
 51
353.7558608865
  0
ARC
  5
326
330
249
100
AcDbEntity
  8
0
  6
Continuous
 62
     7
370
    15
100
AcDbCircle
 10
46.4436936971
 20
-3.909971648
 30
0.0
 40
1.264961665546467
100
AcDbArc
 50
318.5965201307
 51
341.408856402
  0
ARC
  5
327
330
249
100
AcDbEntity
  8
0
  6
Continuous
 62
     7
370
    15
100
AcDbCircle
 10
22.9463104474
 20
11.7915787916
 30
0.0
 40
1.332060535847324
100
AcDbArc
 50
34.9165024268
 51
61.4952840702
  0
ARC
  5
328
330
249
100
AcDbEntity
  8
0
  6
Continuous
 62
     7
370
    15
100
AcDbCircle
 10
2.6929462133
 20
2.1544306966
 30
0.0
 40
1.45470715405331
100
AcDbArc
 50
184.4582669999
 51
246.8618739577
  0
VIEWPORT
  5
335
330
249
100
AcDbEntity
  8
0
100
AcDbViewport
 10
0.0
 20
0.0
 30
0.0
 40
205.6
 41
156.0
 68
     1
 69
     1
 12
19.6868942762
 22
10.304615345
 13
0.0
 23
0.0
 14
10.0
 24
10.0
 15
10.0
 25
10.0
 16
0.0
 26
0.0
 36
1.0
 17
0.0
 27
0.0
 37
0.0
 42
50.0
 43
0.0
 44
0.0
 45
40.2587043658
 50
0.0
 51
0.0
 72
   100
 90
   557152
  1

281
     0
 71
     1
 74
     0
110
0.0
120
0.0
130
0.0
111
1.0
121
0.0
131
0.0
112
0.0
122
1.0
132
0.0
 79
     0
146
0.0
  0
ENDBLK
  5
24C
330
249
100
AcDbEntity
  8
0
100
AcDbBlockEnd
  0
ENDSEC
  0
SECTION
  2
ENTITIES
  0
LWPOLYLINE
  5
8E
330
1F
100
AcDbEntity
  8
0
  6
Continuous
 62
     7
370
    15
100
AcDbPolyline
 90
       23
 70
   128
 43
0.0
 10
38.0824563437
 20
15.291546782
 10
38.2142480301
 20
15.3144868194
 10
38.3308719731
 20
15.3743622418
 10
38.4228799946
 20
15.4663222984
 10
38.4828181517
 20
15.5829169325
 10
38.5058306116
 20
15.7147003401
 10
38.4900530415
 20
15.8509962134
 10
38.4367636463
 20
15.9807626712
 10
38.350279616
 20
16.093486807
 10
38.2376073723
 20
16.1800363816
 10
38.1078749503
 20
16.2333996632
 10
37.9715924993
 20
16.2492534761
 10
37.839800813
 20
16.2263134386
 10
37.7231768699
 20
16.1664380163
 10
37.6311688485
 20
16.0744779597
 10
37.5712306913
 20
15.9578833256
 10
37.5482182315
 20
15.826099918
 10
37.5639958016
 20
15.6898040447
 10
37.6172851967
 20
15.5600375868
 10
37.703769227
 20
15.4473134511
 10
37.8164414707
 20
15.3607638765
 10
37.9461738927
 20
15.3074005949
 10
38.0824563437
 20
15.291546782
  0
LWPOLYLINE
  5
8F
330
1F
100
AcDbEntity
  8
0
  6
Continuous
 62
     7
370
    15
100
AcDbPolyline
 90
       28
 70
   128
 43
0.0
 10
41.2814813415
 20
17.9722088396
 10
41.2340975856
 20
17.9032688761
 10
41.1937508242
 20
17.7993228221
 10
41.1626161615
 20
17.6659744362
 10
41.1423720754
 20
17.5104125644
 10
41.1341099298
 20
17.3410235876
 10
41.138275139
 20
17.1669393092
 10
41.1546431556
 20
16.9975446578
 10
41.1823315755
 20
16.8419717429
 10
41.2198477089
 20
16.7086075406
 10
41.2651690513
 20
16.6046417496
 10
41.3158523174
 20
16.5356791925
 10
41.3691651592
 20
16.5054376588
 10
41.4222334676
 20
16.5155474772
 10
41.4721963163
 20
16.5654636249
 10
41.5163601954
 20
16.6524951094
 10
41.5523442185
 20
16.7719500409
 10
41.5782084777
 20
16.917388573
 10
41.5925586242
 20
17.0809700769
 10
41.5946210377
 20
17.2538758314
 10
41.5842845331
 20
17.4267844425
 10
41.5621063539
 20
17.5903743622
 10
41.5292821316
 20
17.7358264155
 10
41.4875814285
 20
17.8552992447
 10
41.4392523402
 20
17.9423520386
 10
41.3869003005
 20
17.9922917585
 10
41.3333476213
 20
18.0024261412
 10
41.2814813415
 20
17.9722088396
  0
LINE
  5
D3
330
1F
100
AcDbEntity
  8
0
  6
Continuous
 62
     7
370
    15
100
AcDbLine
 10
41.0084565995
 20
-2.0355686199
 30
0.0
 11
44.9391646499
 21
1.8914653338
 31
0.0
  0
LINE
  5
D4
330
1F
100
AcDbEntity
  8
0
  6
Continuous
 62
     7
370
    15
100
AcDbLine
 10
-2.3499940697
 20
21.9281948032
 30
0.0
 11
-5.5634196292
 21
18.7177728849
 31
0.0
  0
LINE
  5
D5
330
1F
100
AcDbEntity
  8
0
  6
Continuous
 62
     7
370
    15
100
AcDbLine
 10
43.4050959488
 20
21.9537495519
 30
0.0
 11
42.9747264543
 21
21.5237823307
 31
0.0
  0
LINE
  5
D6
330
1F
100
AcDbEntity
  8
0
  6
Continuous
 62
     7
370
    15
100
AcDbLine
 10
43.0594803517
 20
21.0841295656
 30
0.0
 11
39.7083365541
 21
17.7361181365
 31
0.0
  0
LINE
  5
D7
330
1F
100
AcDbEntity
  8
0
  6
Continuous
 62
     7
370
    15
100
AcDbLine
 10
36.5211852885
 20
20.5337812897
 30
0.0
 11
40.4518933389
 21
24.4608152434
 31
0.0
  0
LINE
  5
D8
330
1F
100
AcDbEntity
  8
0
  6
Continuous
 62
     7
370
    15
100
AcDbLine
 10
43.6390446044
 20
21.6631520902
 30
0.0
 11
43.4898498463
 21
21.5140967868
 31
0.0
  0
LINE
  5
D9
330
1F
100
AcDbEntity
  8
0
  6
Continuous
 62
     7
370
    15
100
AcDbLine
 10
41.7426880998
 20
0.1622003005
 30
0.0
 11
39.7083365541
 21
17.7361181365
 31
0.0
  0
LINE
  5
DA
330
1F
100
AcDbEntity
  8
0
  6
Continuous
 62
     7
370
    15
100
AcDbLine
 10
-1.0761483182
 20
-3.8515770247
 30
0.0
 11
39.2207199009
 21
-2.7863767107
 31
0.0
  0
LINE
  5
DB
330
1F
100
AcDbEntity
  8
0
  6
Continuous
 62
     7
370
    15
100
AcDbLine
 10
-6.2976511294
 20
16.5200039645
 30
0.0
 11
-4.2632995837
 21
-1.0539138715
 31
0.0
  0
LINE
  5
DC
330
1F
100
AcDbEntity
  8
0
  6
Continuous
 62
     7
370
    15
100
AcDbLine
 10
36.5211852885
 20
20.5337812897
 30
0.0
 11
-3.7756829306
 21
19.4685809756
 31
0.0
  0
LINE
  5
DD
330
1F
100
AcDbEntity
  8
0
  6
Continuous
 62
     7
370
    15
100
AcDbLine
 10
1.7552840693
 20
0.5461361824
 30
0.0
 11
8.4159234444
 21
0.72220235
 31
0.0
  0
LINE
  5
DE
330
1F
100
AcDbEntity
  8
0
  6
Continuous
 62
     7
370
    15
100
AcDbLine
 10
10.0972355769
 20
2.6879203574
 30
0.0
 11
8.8389309424
 21
13.557891335
 31
0.0
  0
LINE
  5
DF
330
1F
100
AcDbEntity
  8
0
  6
Continuous
 62
     7
370
    15
100
AcDbLine
 10
6.714163432
 20
15.4230001038
 30
0.0
 11
0.053524057
 21
15.2469339362
 31
0.0
  0
LINE
  5
E0
330
1F
100
AcDbEntity
  8
0
  6
Continuous
 62
     7
370
    15
100
AcDbLine
 10
0.053524057
 20
15.2469339362
 30
0.0
 11
1.7552840693
 21
0.5461361824
 31
0.0
  0
LINE
  5
E1
330
1F
100
AcDbEntity
  8
0
  6
Continuous
 62
     7
370
    15
100
AcDbLine
 10
36.888064256
 20
3.3480725396
 30
0.0
 11
35.6131300448
 21
14.3616995213
 31
0.0
  0
LINE
  5
E2
330
1F
100
AcDbEntity
  8
0
  6
Continuous
 62
     7
370
    15
100
AcDbLine
 10
35.6131300448
 20
14.3616995213
 30
0.0
 11
14.6796920089
 21
13.8083487088
 31
0.0
  0
LINE
  5
E3
330
1F
100
AcDbEntity
  8
0
  6
Continuous
 62
     7
370
    15
100
AcDbLine
 10
14.6796920089
 20
13.8083487088
 30
0.0
 11
15.9546262201
 21
2.7947217271
 31
0.0
  0
LINE
  5
E4
330
1F
100
AcDbEntity
  8
0
  6
Continuous
 62
     7
370
    15
100
AcDbLine
 10
15.9546262201
 20
2.7947217271
 30
0.0
 11
36.888064256
 21
3.3480725396
 31
0.0
  0
LINE
  5
E5
330
1F
100
AcDbEntity
  8
0
  6
Continuous
 62
     7
370
    15
100
AcDbLine
 10
45.1274672058
 20
7.3674007631
 30
0.0
 11
44.6970977112
 21
6.9374335419
 31
0.0
  0
LINE
  5
E6
330
1F
100
AcDbEntity
  8
0
  6
Continuous
 62
     7
370
    15
100
AcDbLine
 10
44.6970977112
 20
6.9374335419
 30
0.0
 11
44.8633934779
 21
5.5008735008
 31
0.0
  0
LINE
  5
E7
330
1F
100
AcDbEntity
  8
0
  6
Continuous
 62
     7
370
    15
100
AcDbLine
 10
44.8633934779
 20
5.5008735008
 30
0.0
 11
45.2937629725
 21
5.930840722
 31
0.0
  0
LINE
  5
E8
330
1F
100
AcDbEntity
  8
0
  6
Continuous
 62
     7
370
    15
100
AcDbLine
 10
45.2937629725
 20
5.930840722
 30
0.0
 11
45.1274672058
 21
7.3674007631
 31
0.0
  0
LINE
  5
E9
330
1F
100
AcDbEntity
  8
0
  6
Continuous
 62
     7
370
    15
100
AcDbLine
 10
44.8460314178
 20
9.7986076136
 30
0.0
 11
44.4156619232
 21
9.3686403924
 31
0.0
  0
LINE
  5
EA
330
1F
100
AcDbEntity
  8
0
  6
Continuous
 62
     7
370
    15
100
AcDbLine
 10
44.4156619232
 20
9.3686403924
 30
0.0
 11
44.5819576899
 21
7.9320803513
 31
0.0
  0
LINE
  5
EB
330
1F
100
AcDbEntity
  8
0
  6
Continuous
 62
     7
370
    15
100
AcDbLine
 10
44.5819576899
 20
7.9320803513
 30
0.0
 11
45.0123271845
 21
8.3620475725
 31
0.0
  0
LINE
  5
EC
330
1F
100
AcDbEntity
  8
0
  6
Continuous
 62
     7
370
    15
100
AcDbLine
 10
45.0123271845
 20
8.3620475725
 30
0.0
 11
44.8460314178
 21
9.7986076136
 31
0.0
  0
LINE
  5
ED
330
1F
100
AcDbEntity
  8
0
  6
Continuous
 62
     7
370
    15
100
AcDbLine
 10
44.5645956298
 20
12.2298144641
 30
0.0
 11
44.1342261353
 21
11.7998472429
 31
0.0
  0
LINE
  5
EE
330
1F
100
AcDbEntity
  8
0
  6
Continuous
 62
     7
370
    15
100
AcDbLine
 10
44.1342261353
 20
11.7998472429
 30
0.0
 11
44.3005219019
 21
10.3632872018
 31
0.0
  0
LINE
  5
EF
330
1F
100
AcDbEntity
  8
0
  6
Continuous
 62
     7
370
    15
100
AcDbLine
 10
44.3005219019
 20
10.3632872018
 30
0.0
 11
44.7308913965
 21
10.793254423
 31
0.0
  0
LINE
  5
F0
330
1F
100
AcDbEntity
  8
0
  6
Continuous
 62
     7
370
    15
100
AcDbLine
 10
44.7308913965
 20
10.793254423
 30
0.0
 11
44.5645956298
 21
12.2298144641
 31
0.0
  0
LINE
  5
F1
330
1F
100
AcDbEntity
  8
0
  6
Continuous
 62
     7
370
    15
100
AcDbLine
 10
44.2831598418
 20
14.6610213146
 30
0.0
 11
43.8527903473
 21
14.2310540934
 31
0.0
  0
LINE
  5
F2
330
1F
100
AcDbEntity
  8
0
  6
Continuous
 62
     7
370
    15
100
AcDbLine
 10
43.8527903473
 20
14.2310540934
 30
0.0
 11
44.0190861139
 21
12.7944940523
 31
0.0
  0
LINE
  5
F3
330
1F
100
AcDbEntity
  8
0
  6
Continuous
 62
     7
370
    15
100
AcDbLine
 10
44.0190861139
 20
12.7944940523
 30
0.0
 11
44.4494556085
 21
13.2244612735
 31
0.0
  0
LINE
  5
F4
330
1F
100
AcDbEntity
  8
0
  6
Continuous
 62
     7
370
    15
100
AcDbLine
 10
44.4494556085
 20
13.2244612735
 30
0.0
 11
44.2831598418
 21
14.6610213146
 31
0.0
  0
LINE
  5
F5
330
1F
100
AcDbEntity
  8
0
  6
Continuous
 62
     7
370
    15
100
AcDbLine
 10
44.0017240538
 20
17.0922281651
 30
0.0
 11
43.5713545593
 21
16.6622609439
 31
0.0
  0
LINE
  5
F6
330
1F
100
AcDbEntity
  8
0
  6
Continuous
 62
     7
370
    15
100
AcDbLine
 10
43.5713545593
 20
16.6622609439
 30
0.0
 11
43.737650326
 21
15.2257009028
 31
0.0
  0
LINE
  5
F7
330
1F
100
AcDbEntity
  8
0
  6
Continuous
 62
     7
370
    15
100
AcDbLine
 10
43.737650326
 20
15.2257009028
 30
0.0
 11
44.1680198205
 21
15.655668124
 31
0.0
  0
LINE
  5
F8
330
1F
100
AcDbEntity
  8
0
  6
Continuous
 62
     7
370
    15
100
AcDbLine
 10
44.1680198205
 20
15.655668124
 30
0.0
 11
44.0017240538
 21
17.0922281651
 31
0.0
  0
LINE
  5
F9
330
1F
100
AcDbEntity
  8
0
  6
Continuous
 62
     7
370
    15
100
AcDbLine
 10
43.7202882659
 20
19.5234350156
 30
0.0
 11
43.2899187713
 21
19.0934677944
 31
0.0
  0
LINE
  5
FA
330
1F
100
AcDbEntity
  8
0
  6
Continuous
 62
     7
370
    15
100
AcDbLine
 10
43.2899187713
 20
19.0934677944
 30
0.0
 11
43.456214538
 21
17.6569077533
 31
0.0
  0
LINE
  5
FB
330
1F
100
AcDbEntity
  8
0
  6
Continuous
 62
     7
370
    15
100
AcDbLine
 10
43.456214538
 20
17.6569077533
 30
0.0
 11
43.8865840325
 21
18.0868749745
 31
0.0
  0
LINE
  5
FC
330
1F
100
AcDbEntity
  8
0
  6
Continuous
 62
     7
370
    15
100
AcDbLine
 10
43.8865840325
 20
18.0868749745
 30
0.0
 11
43.7202882659
 21
19.5234350156
 31
0.0
  0
LINE
  5
FD
330
1F
100
AcDbEntity
  8
0
  6
Continuous
 62
     7
370
    15
100
AcDbLine
 10
45.524201392
 20
3.9401789508
 30
0.0
 11
45.6733961501
 21
4.0892342542
 31
0.0
  0
LINE
  5
FE
330
1F
100
AcDbEntity
  8
0
  6
Continuous
 62
     7
370
    15
100
AcDbLine
 10
45.524201392
 20
3.9401789508
 30
0.0
 11
45.4089029938
 21
4.9361939126
 31
0.0
  0
LINE
  5
FF
330
1F
100
AcDbEntity
  8
0
  6
Continuous
 62
     7
370
    15
100
AcDbLine
 10
45.4089029938
 20
4.9361939126
 30
0.0
 11
44.9785334992
 21
4.5062266914
 31
0.0
  0
LINE
  5
100
330
1F
100
AcDbEntity
  8
0
  6
Continuous
 62
     7
370
    15
100
AcDbLine
 10
44.9785334992
 20
4.5062266914
 30
0.0
 11
45.0938318974
 21
3.5102117296
 31
0.0
  0
LINE
  5
101
330
1F
100
AcDbEntity
  8
0
  6
Continuous
 62
     7
370
    15
100
AcDbLine
 10
41.7426880998
 20
0.1622003005
 30
0.0
 11
45.0938318974
 21
3.5102117296
 31
0.0
  0
LINE
  5
102
330
1F
100
AcDbEntity
  8
0
  6
Continuous
 62
     7
370
    15
100
AcDbLine
 10
43.0594803517
 20
21.0841295656
 30
0.0
 11
43.17477875
 21
20.0881146038
 31
0.0
  0
LINE
  5
103
330
1F
100
AcDbEntity
  8
0
  6
Continuous
 62
     7
370
    15
100
AcDbLine
 10
43.17477875
 20
20.0881146038
 30
0.0
 11
43.6051482445
 21
20.518081825
 31
0.0
  0
LINE
  5
104
330
1F
100
AcDbEntity
  8
0
  6
Continuous
 62
     7
370
    15
100
AcDbLine
 10
43.6051482445
 20
20.518081825
 30
0.0
 11
43.4898498463
 21
21.5140967868
 31
0.0
  0
LINE
  5
105
330
1F
100
AcDbEntity
  8
0
  6
Continuous
 62
     7
370
    15
100
AcDbLine
 10
45.6733961501
 20
4.0892342542
 30
0.0
 11
43.6390446044
 21
21.6631520902
 31
0.0
  0
LINE
  5
106
330
1F
100
AcDbEntity
  8
0
  6
Continuous
 62
     7
370
    15
100
AcDbLine
 10
3.2438222717
 20
22.7796121326
 30
0.0
 11
3.9611047627
 21
23.496224168
 31
0.0
  0
LINE
  5
107
330
1F
100
AcDbEntity
  8
0
  6
Continuous
 62
     7
370
    15
100
AcDbLine
 10
40.4518933389
 20
24.4608152434
 30
0.0
 11
3.9611047627
 21
23.496224168
 31
0.0
  0
LINE
  5
108
330
1F
100
AcDbEntity
  8
0
  6
Continuous
 62
     7
370
    15
100
AcDbLine
 10
-0.5622573712
 20
22.679002894
 30
0.0
 11
-3.7756829306
 21
19.4685809756
 31
0.0
  0
LINE
  5
109
330
1F
100
AcDbEntity
  8
0
  6
Continuous
 62
     7
370
    15
100
AcDbLine
 10
-0.5622573712
 20
22.679002894
 30
0.0
 11
3.2438222717
 21
22.7796121326
 31
0.0
  0
LINE
  5
10A
330
1F
100
AcDbEntity
  8
0
  6
Continuous
 62
     7
370
    15
100
AcDbLine
 10
5.5052787569
 20
20.4115637979
 30
0.0
 11
7.3702132333
 21
22.2747550898
 31
0.0
  0
LINE
  5
10B
330
1F
100
AcDbEntity
  8
0
  6
Continuous
 62
     7
370
    15
100
AcDbLine
 10
7.3702132333
 20
22.2747550898
 30
0.0
 11
2.6126136797
 21
22.1489935415
 31
0.0
  0
LINE
  5
10C
330
1F
100
AcDbEntity
  8
0
  6
Continuous
 62
     7
370
    15
100
AcDbLine
 10
2.6126136797
 20
22.1489935415
 30
0.0
 11
0.7476792032
 21
20.2858022496
 31
0.0
  0
LINE
  5
10D
330
1F
100
AcDbEntity
  8
0
  6
Continuous
 62
     7
370
    15
100
AcDbLine
 10
0.7476792032
 20
20.2858022496
 30
0.0
 11
5.5052787569
 21
20.4115637979
 31
0.0
  0
LINE
  5
10E
330
1F
100
AcDbEntity
  8
0
  6
Continuous
 62
     7
370
    15
100
AcDbLine
 10
38.3693693401
 20
15.5781915961
 30
0.0
 11
38.4871793807
 21
15.5967277749
 31
0.0
  0
LINE
  5
10F
330
1F
100
AcDbEntity
  8
0
  6
Continuous
 62
     7
370
    15
100
AcDbLine
 10
16.2415392165
 20
3.0813665412
 30
0.0
 11
36.8558588302
 21
3.6262818336
 31
0.0
  0
LINE
  5
110
330
1F
100
AcDbEntity
  8
0
  6
Continuous
 62
     7
370
    15
100
AcDbLine
 10
14.9988104311
 20
13.8167842289
 30
0.0
 11
16.2415392165
 21
3.0813665412
 31
0.0
  0
LINE
  5
111
330
1F
100
AcDbEntity
  8
0
  6
Continuous
 62
     7
370
    15
100
AcDbLine
 10
45.1110727369
 20
3.0687743362
 30
0.0
 11
45.5414422314
 21
3.4987415574
 31
0.0
  0
LINE
  5
112
330
1F
100
AcDbEntity
  8
0
  6
Continuous
 62
     7
370
    15
100
AcDbLine
 10
16.2415392165
 20
3.0813665412
 30
0.0
 11
15.9546262201
 21
2.7947217271
 31
0.0
  0
LINE
  5
113
330
1F
100
AcDbEntity
  8
0
  6
Continuous
 62
     7
370
    15
100
AcDbLine
 10
43.1264706112
 20
20.5054285448
 30
0.0
 11
43.6051482445
 21
20.518081825
 31
0.0
  0
LINE
  5
114
330
1F
100
AcDbEntity
  8
0
  6
Continuous
 62
     7
370
    15
100
AcDbLine
 10
2.0421970657
 20
0.8327809965
 30
0.0
 11
8.7028364407
 21
1.0088471641
 31
0.0
  0
LINE
  5
115
330
1F
100
AcDbEntity
  8
0
  6
Continuous
 62
     7
370
    15
100
AcDbLine
 10
0.3726424792
 20
15.2553694563
 30
0.0
 11
2.0421970657
 21
0.8327809965
 31
0.0
  0
LINE
  5
116
330
1F
100
AcDbEntity
  8
0
  6
Continuous
 62
     7
370
    15
100
AcDbLine
 10
43.4079063992
 20
18.0742216943
 30
0.0
 11
43.8865840325
 21
18.0868749745
 31
0.0
  0
LINE
  5
117
330
1F
100
AcDbEntity
  8
0
  6
Continuous
 62
     7
370
    15
100
AcDbLine
 10
43.6893421872
 20
15.6430148438
 30
0.0
 11
44.1680198205
 21
15.655668124
 31
0.0
  0
LINE
  5
118
330
1F
100
AcDbEntity
  8
0
  6
Continuous
 62
     7
370
    15
100
AcDbLine
 10
6.3825449448
 20
21.2880099909
 30
0.0
 11
2.7234775241
 21
21.1912868475
 31
0.0
  0
LINE
  5
119
330
1F
100
AcDbEntity
  8
0
  6
Continuous
 62
     7
370
    15
100
AcDbLine
 10
2.7234775241
 20
21.1912868475
 30
0.0
 11
1.8462113362
 21
20.3148406545
 31
0.0
  0
LINE
  5
11A
330
1F
100
AcDbEntity
  8
0
  6
Continuous
 62
     7
370
    15
100
AcDbLine
 10
43.9707779752
 20
13.2118079933
 30
0.0
 11
44.4494556085
 21
13.2244612735
 31
0.0
  0
LINE
  5
11B
330
1F
100
AcDbEntity
  8
0
  6
Continuous
 62
     7
370
    15
100
AcDbLine
 10
2.0421970657
 20
0.8327809965
 30
0.0
 11
1.7552840693
 21
0.5461361824
 31
0.0
  0
LINE
  5
11C
330
1F
100
AcDbEntity
  8
0
  6
Continuous
 62
     7
370
    15
100
AcDbLine
 10
44.2522137632
 20
10.7806011428
 30
0.0
 11
44.7308913965
 21
10.793254423
 31
0.0
  0
LINE
  5
11D
330
1F
100
AcDbEntity
  8
0
  6
Continuous
 62
     7
370
    15
100
AcDbLine
 10
8.7028364407
 20
1.0088471641
 30
0.0
 11
8.4159234444
 21
0.72220235
 31
0.0
  0
LINE
  5
11E
330
1F
100
AcDbEntity
  8
0
  6
Continuous
 62
     7
370
    15
100
AcDbLine
 10
2.7234775241
 20
21.1912868475
 30
0.0
 11
2.6126136797
 21
22.1489935415
 31
0.0
  0
LINE
  5
11F
330
1F
100
AcDbEntity
  8
0
  6
Continuous
 62
     7
370
    15
100
AcDbLine
 10
44.5336495512
 20
8.3493942923
 30
0.0
 11
45.0123271845
 21
8.3620475725
 31
0.0
  0
LINE
  5
120
330
1F
100
AcDbEntity
  8
0
  6
Continuous
 62
     7
370
    15
100
AcDbLine
 10
44.8150853392
 20
5.9181874418
 30
0.0
 11
45.2937629725
 21
5.930840722
 31
0.0
  0
LINE
  5
121
330
1F
100
AcDbEntity
  8
0
  6
Continuous
 62
     7
370
    15
100
AcDbLine
 10
45.0964278125
 20
3.4869781247
 30
0.0
 11
45.5414422314
 21
3.4987415574
 31
0.0
  0
ARC
  5
122
330
1F
100
AcDbEntity
  8
0
  6
Continuous
 62
     7
370
    15
100
AcDbCircle
 10
40.0799745954
 20
20.73775204
 30
0.0
 40
2.999571959847096
100
AcDbArc
 50
6.6310606378
 51
15.191587464
  0
ARC
  5
123
330
1F
100
AcDbEntity
  8
0
  6
Continuous
 62
     7
370
    15
100
AcDbCircle
 10
36.5450745435
 20
17.3467330295
 30
0.0
 40
3.187137792630087
100
AcDbArc
 50
7.0175821442
 51
90.4294656803
  0
ARC
  5
124
330
1F
100
AcDbEntity
  8
0
  6
Continuous
 62
     7
370
    15
100
AcDbCircle
 10
40.474760291
 20
21.2726023563
 30
0.0
 40
3.188294890823165
100
AcDbArc
 50
7.0361099649
 51
90.4109378596
  0
ARC
  5
125
330
1F
100
AcDbEntity
  8
0
  6
Continuous
 62
     7
370
    15
100
AcDbCircle
 10
40.51034409
 20
21.1677192612
 30
0.0
 40
2.99957195984295
100
AcDbArc
 50
6.6310606378
 51
15.191587464
  0
ARC
  5
126
330
1F
100
AcDbEntity
  8
0
  6
Continuous
 62
     7
370
    15
100
AcDbCircle
 10
39.1755758963
 20
-0.1949345647
 30
0.0
 40
2.591835329886033
100
AcDbArc
 50
270.9980154647
 51
7.9201143106
  0
ARC
  5
127
330
1F
100
AcDbEntity
  8
0
  6
Continuous
 62
     7
370
    15
100
AcDbCircle
 10
-1.1000375731
 20
-0.6645287645
 30
0.0
 40
3.187137792630085
100
AcDbArc
 50
187.0175821442
 51
270.4294656803
  0
ARC
  5
128
330
1F
100
AcDbEntity
  8
0
  6
Continuous
 62
     7
370
    15
100
AcDbCircle
 10
-3.7305389259
 20
16.8771388296
 30
0.0
 40
2.591835329886018
100
AcDbArc
 50
90.9980154647
 51
187.9201143106
  0
ARC
  5
129
330
1F
100
AcDbEntity
  8
0
  6
Continuous
 62
     7
370
    15
100
AcDbCircle
 10
8.384581995
 20
2.4508956987
 30
0.0
 40
1.728977437790463
100
AcDbArc
 50
271.0386666078
 51
7.8794631675
  0
ARC
  5
12A
330
1F
100
AcDbEntity
  8
0
  6
Continuous
 62
     7
370
    15
100
AcDbCircle
 10
6.7312713039
 20
13.299647481
 30
0.0
 40
2.123421540799711
100
AcDbArc
 50
6.9854251845
 51
90.46162264
  0
ARC
  5
12B
330
1F
100
AcDbEntity
  8
0
  6
Continuous
 62
     7
370
    15
100
AcDbCircle
 10
38.3606448026
 20
16.1012538354
 30
0.0
 40
0.5231349956192346
100
AcDbArc
 50
165.6717830635
 51
270.9555895839
  0
ARC
  5
12C
330
1F
100
AcDbEntity
  8
0
  6
Continuous
 62
     7
370
    15
100
AcDbCircle
 10
42.2317526891
 20
3.1773745943
 30
0.0
 40
2.881367375684784
100
AcDbArc
 50
357.8399801926
 51
6.6332499236
  0
ARC
  5
12D
330
1F
100
AcDbEntity
  8
0
  6
Continuous
 62
     7
370
    15
100
AcDbCircle
 10
42.6621221836
 20
3.6073418155
 30
0.0
 40
2.881367375686518
100
AcDbArc
 50
357.8399801926
 51
6.6332499236
  0
ARC
  5
12E
330
1F
100
AcDbEntity
  8
0
  6
Continuous
 62
     7
370
    15
100
AcDbCircle
 10
43.0531558214
 20
3.7430745342
 30
0.0
 40
2.643006986759842
100
AcDbArc
 50
315.5273138783
 51
7.5257598986
  0
ARC
  5
12F
330
1F
100
AcDbEntity
  8
0
  6
Continuous
 62
     7
370
    15
100
AcDbCircle
 10
8.6716736777
 20
2.7571511088
 30
0.0
 40
1.748581654022177
100
AcDbArc
 50
271.0211643984
 51
307.762253728
  0
ARC
  5
130
330
1F
100
AcDbEntity
  8
0
  6
Continuous
 62
     7
370
    15
100
AcDbCircle
 10
-0.5172765851
 20
20.0681207359
 30
0.0
 40
2.611269598166603
100
AcDbArc
 50
90.9870051998
 51
134.5755546901
  0
CIRCLE
  5
13F
330
1B
100
AcDbEntity
 67
     1
  8
0
  6
Continuous
 62
     7
370
    15
100
AcDbCircle
 10
46.35
 20
19.35
 30
0.0
 40
0.5000000000000071
  0
LINE
  5
144
330
1B
100
AcDbEntity
 67
     1
  8
0
  6
Continuous
 62
     7
370
    15
100
AcDbLine
 10
6.5
 20
4.5
 30
0.0
 11
13.5
 21
4.5
 31
0.0
  0
LINE
  5
145
330
1B
100
AcDbEntity
 67
     1
  8
0
  6
Continuous
 62
     7
370
    15
100
AcDbLine
 10
15.5
 20
6.5
 30
0.0
 11
15.5
 21
17.85
 31
0.0
  0
LINE
  5
146
330
1B
100
AcDbEntity
 67
     1
  8
0
  6
Continuous
 62
     7
370
    15
100
AcDbLine
 10
13.5
 20
19.85
 30
0.0
 11
6.5
 21
19.85
 31
0.0
  0
LINE
  5
147
330
1B
100
AcDbEntity
 67
     1
  8
0
  6
Continuous
 62
     7
370
    15
100
AcDbLine
 10
6.5
 20
19.85
 30
0.0
 11
6.5
 21
4.5
 31
0.0
  0
LINE
  5
148
330
1B
100
AcDbEntity
 67
     1
  8
0
  6
Continuous
 62
     7
370
    15
100
AcDbLine
 10
43.65
 20
6.45
 30
0.0
 11
43.65
 21
17.95
 31
0.0
  0
LINE
  5
149
330
1B
100
AcDbEntity
 67
     1
  8
0
  6
Continuous
 62
     7
370
    15
100
AcDbLine
 10
43.65
 20
17.95
 30
0.0
 11
21.65
 21
17.95
 31
0.0
  0
LINE
  5
14A
330
1B
100
AcDbEntity
 67
     1
  8
0
  6
Continuous
 62
     7
370
    15
100
AcDbLine
 10
21.65
 20
17.95
 30
0.0
 11
21.65
 21
6.45
 31
0.0
  0
LINE
  5
14B
330
1B
100
AcDbEntity
 67
     1
  8
0
  6
Continuous
 62
     7
370
    15
100
AcDbLine
 10
21.65
 20
6.45
 30
0.0
 11
43.65
 21
6.45
 31
0.0
  0
LINE
  5
14C
330
1B
100
AcDbEntity
 67
     1
  8
0
  6
Continuous
 62
     7
370
    15
100
AcDbLine
 10
45.35
 20
24.35
 30
0.0
 11
3.0
 21
24.35
 31
0.0
  0
LINE
  5
14D
330
1B
100
AcDbEntity
 67
     1
  8
0
  6
Continuous
 62
     7
370
    15
100
AcDbLine
 10
48.35
 20
3.0
 30
0.0
 11
48.35
 21
21.35
 31
0.0
  0
LINE
  5
14E
330
1B
100
AcDbEntity
 67
     1
  8
0
  6
Continuous
 62
     7
370
    15
100
AcDbLine
 10
3.0
 20
0.0
 30
0.0
 11
45.35
 21
0.0
 31
0.0
  0
LINE
  5
14F
330
1B
100
AcDbEntity
 67
     1
  8
0
  6
Continuous
 62
     7
370
    15
100
AcDbLine
 10
0.0
 20
21.35
 30
0.0
 11
0.0
 21
3.0
 31
0.0
  0
ARC
  5
150
330
1B
100
AcDbEntity
 67
     1
  8
0
  6
Continuous
 62
     7
370
    15
100
AcDbCircle
 10
45.35
 20
21.35
 30
0.0
 40
2.999999999999993
100
AcDbArc
 50
0.0
 51
90.0
  0
ARC
  5
151
330
1B
100
AcDbEntity
 67
     1
  8
0
  6
Continuous
 62
     7
370
    15
100
AcDbCircle
 10
45.35
 20
3.0
 30
0.0
 40
3.000000000000007
100
AcDbArc
 50
270.0
 51
0.0
  0
ARC
  5
152
330
1B
100
AcDbEntity
 67
     1
  8
0
  6
Continuous
 62
     7
370
    15
100
AcDbCircle
 10
3.0
 20
3.0
 30
0.0
 40
3.0
100
AcDbArc
 50
180.0
 51
270.0
  0
ARC
  5
153
330
1B
100
AcDbEntity
 67
     1
  8
0
  6
Continuous
 62
     7
370
    15
100
AcDbCircle
 10
3.0
 20
21.35
 30
0.0
 40
3.0
100
AcDbArc
 50
90.0
 51
180.0
  0
ARC
  5
154
330
1B
100
AcDbEntity
 67
     1
  8
0
  6
Continuous
 62
     7
370
    15
100
AcDbCircle
 10
13.5
 20
6.5
 30
0.0
 40
2.000000000000004
100
AcDbArc
 50
270.0
 51
0.0
  0
ARC
  5
155
330
1B
100
AcDbEntity
 67
     1
  8
0
  6
Continuous
 62
     7
370
    15
100
AcDbCircle
 10
13.5
 20
17.85
 30
0.0
 40
2.000000000000004
100
AcDbArc
 50
0.0
 51
90.0
  0
VIEWPORT
  5
329
330
1B
100
AcDbEntity
 67
     1
  8
0
100
AcDbViewport
 10
0.0
 20
0.0
 30
0.0
 40
205.6
 41
156.0
 68
     1
 69
     1
 12
19.6868942762
 22
10.304615345
 13
0.0
 23
0.0
 14
10.0
 24
10.0
 15
10.0
 25
10.0
 16
0.0
 26
0.0
 36
1.0
 17
0.0
 27
0.0
 37
0.0
 42
50.0
 43
0.0
 44
0.0
 45
40.2587043658
 50
0.0
 51
0.0
 72
   100
 90
   557152
  1

281
     0
 71
     1
 74
     0
110
0.0
120
0.0
130
0.0
111
1.0
121
0.0
131
0.0
112
0.0
122
1.0
132
0.0
 79
     0
146
0.0
  0
ENDSEC
  0
SECTION
  2
OBJECTS
  0
DICTIONARY
  5
C
330
0
100
AcDbDictionary
281
     1
  3
ACAD_GROUP
350
D
  3
ACAD_LAYOUT
350
1A
  3
ACAD_MLINESTYLE
350
17
  3
ACAD_PLOTSETTINGS
350
19
  3
ACAD_PLOTSTYLENAME
350
E
  3
ACAD_SCALELIST
350
47
  0
DICTIONARY
  5
D
102
{ACAD_REACTORS
330
C
102
}
330
C
100
AcDbDictionary
281
     1
  0
DICTIONARY
  5
1A
102
{ACAD_REACTORS
330
C
102
}
330
C
100
AcDbDictionary
281
     1
  3
_Back
350
1D8
  3
_Bottom
350
228
  3
_Front
350
26
  3
_Isometric
350
24A
  3
_Left
350
200
  3
_Right
350
17B
  3
_Top
350
1E
  3
Model
350
22
  0
DICTIONARY
  5
17
102
{ACAD_REACTORS
330
C
102
}
330
C
100
AcDbDictionary
281
     1
  3
Standard
350
18
  0
DICTIONARY
  5
19
102
{ACAD_REACTORS
330
C
102
}
330
C
100
AcDbDictionary
281
     1
  0
ACDBDICTIONARYWDFLT
  5
E
102
{ACAD_REACTORS
330
C
102
}
330
C
100
AcDbDictionary
281
     1
  3
Normal
350
F
100
AcDbDictionaryWithDefault
340
F
  0
DICTIONARY
  5
47
102
{ACAD_REACTORS
330
C
102
}
330
C
100
AcDbDictionary
281
     1
  3
A0
350
48
  3
A1
350
49
  3
A2
350
4A
  3
A3
350
4B
  3
A4
350
4C
  3
A5
350
4D
  3
A6
350
4E
  3
A7
350
4F
  3
A8
350
50
  3
A9
350
51
  3
B0
350
52
  3
B1
350
53
  3
B2
350
54
  3
B3
350
55
  3
B4
350
56
  3
B5
350
57
  3
B6
350
58
  3
B7
350
59
  3
B8
350
5A
  3
B9
350
5B
  3
C0
350
5C
  3
C1
350
5D
  3
C2
350
5E
  3
C3
350
5F
  3
C4
350
60
  3
C5
350
61
  3
C6
350
62
  3
C7
350
63
  3
C8
350
64
  3
C9
350
65
  3
D0
350
66
  3
D1
350
67
  3
D2
350
68
  0
LAYOUT
  5
1D8
102
{ACAD_REACTORS
330
1A
102
}
330
1A
100
AcDbPlotSettings
  1

  2
none_device
  4
ISO_A4_(210.00_x_297.00_MM)
  6

 40
7.5
 41
20.0
 42
7.5
 43
20.0
 44
210.0
 45
297.0
 46
0.0
 47
0.0
 48
0.0
 49
0.0
140
0.0
141
0.0
142
1.0
143
0.1881322957
 70
   688
 72
     1
 73
     1
 74
     1
  7

 75
     0
147
5.3154084798
148
0.0
149
0.0
100
AcDbLayout
  1
_Back
 70
     1
 71
     4
 10
0.0
 20
0.0
 11
0.0
 21
0.0
 12
0.0
 22
0.0
 32
0.0
 14
0.0
 24
0.0
 34
0.0
 15
0.0
 25
0.0
 35
0.0
146
0.0
 13
0.0
 23
0.0
 33
0.0
 16
1.0
 26
0.0
 36
0.0
 17
0.0
 27
1.0
 37
0.0
 76
     0
330
1D7
331
32F
  0
LAYOUT
  5
228
102
{ACAD_REACTORS
330
1A
102
}
330
1A
100
AcDbPlotSettings
  1

  2
none_device
  4
ISO_A4_(210.00_x_297.00_MM)
  6

 40
7.5
 41
20.0
 42
7.5
 43
20.0
 44
210.0
 45
297.0
 46
0.0
 47
0.0
 48
0.0
 49
0.0
140
0.0
141
0.0
142
1.0
143
0.1881322957
 70
   688
 72
     1
 73
     1
 74
     1
  7

 75
     0
147
5.3154084798
148
0.0
149
0.0
100
AcDbLayout
  1
_Bottom
 70
     1
 71
     6
 10
0.0
 20
0.0
 11
0.0
 21
0.0
 12
0.0
 22
0.0
 32
0.0
 14
0.0
 24
0.0
 34
0.0
 15
0.0
 25
0.0
 35
0.0
146
0.0
 13
0.0
 23
0.0
 33
0.0
 16
1.0
 26
0.0
 36
0.0
 17
0.0
 27
1.0
 37
0.0
 76
     0
330
227
331
333
  0
LAYOUT
  5
26
102
{ACAD_REACTORS
330
1A
102
}
330
1A
100
AcDbPlotSettings
  1

  2
none_device
  4
ISO_A4_(210.00_x_297.00_MM)
  6

 40
7.5
 41
20.0
 42
7.5
 43
20.0
 44
210.0
 45
297.0
 46
0.0
 47
0.0
 48
0.0
 49
0.0
140
0.0
141
0.0
142
1.0
143
0.1881322957
 70
   688
 72
     1
 73
     1
 74
     1
  7

 75
     0
147
5.3154084798
148
0.0
149
0.0
100
AcDbLayout
  1
_Front
 70
     1
 71
     2
 10
0.0
 20
0.0
 11
0.0
 21
0.0
 12
0.0
 22
0.0
 32
0.0
 14
0.0
 24
0.0
 34
0.0
 15
0.0
 25
0.0
 35
0.0
146
0.0
 13
0.0
 23
0.0
 33
0.0
 16
1.0
 26
0.0
 36
0.0
 17
0.0
 27
1.0
 37
0.0
 76
     0
330
23
331
32B
  0
LAYOUT
  5
24A
102
{ACAD_REACTORS
330
1A
102
}
330
1A
100
AcDbPlotSettings
  1

  2
none_device
  4
ISO_A4_(210.00_x_297.00_MM)
  6

 40
7.5
 41
20.0
 42
7.5
 43
20.0
 44
210.0
 45
297.0
 46
0.0
 47
0.0
 48
0.0
 49
0.0
140
0.0
141
0.0
142
1.0
143
0.1881322957
 70
   688
 72
     1
 73
     1
 74
     1
  7

 75
     0
147
5.3154084798
148
0.0
149
0.0
100
AcDbLayout
  1
_Isometric
 70
     1
 71
     7
 10
0.0
 20
0.0
 11
0.0
 21
0.0
 12
0.0
 22
0.0
 32
0.0
 14
0.0
 24
0.0
 34
0.0
 15
0.0
 25
0.0
 35
0.0
146
0.0
 13
0.0
 23
0.0
 33
0.0
 16
1.0
 26
0.0
 36
0.0
 17
0.0
 27
1.0
 37
0.0
 76
     0
330
249
331
335
  0
LAYOUT
  5
200
102
{ACAD_REACTORS
330
1A
102
}
330
1A
100
AcDbPlotSettings
  1

  2
none_device
  4
ISO_A4_(210.00_x_297.00_MM)
  6

 40
7.5
 41
20.0
 42
7.5
 43
20.0
 44
210.0
 45
297.0
 46
0.0
 47
0.0
 48
0.0
 49
0.0
140
0.0
141
0.0
142
1.0
143
0.1881322957
 70
   688
 72
     1
 73
     1
 74
     1
  7

 75
     0
147
5.3154084798
148
0.0
149
0.0
100
AcDbLayout
  1
_Left
 70
     1
 71
     5
 10
0.0
 20
0.0
 11
0.0
 21
0.0
 12
0.0
 22
0.0
 32
0.0
 14
0.0
 24
0.0
 34
0.0
 15
0.0
 25
0.0
 35
0.0
146
0.0
 13
0.0
 23
0.0
 33
0.0
 16
1.0
 26
0.0
 36
0.0
 17
0.0
 27
1.0
 37
0.0
 76
     0
330
1FF
331
331
  0
LAYOUT
  5
17B
102
{ACAD_REACTORS
330
1A
102
}
330
1A
100
AcDbPlotSettings
  1

  2
none_device
  4
ISO_A4_(210.00_x_297.00_MM)
  6

 40
7.5
 41
20.0
 42
7.5
 43
20.0
 44
210.0
 45
297.0
 46
0.0
 47
0.0
 48
0.0
 49
0.0
140
0.0
141
0.0
142
1.0
143
0.1881322957
 70
   688
 72
     1
 73
     1
 74
     1
  7

 75
     0
147
5.3154084798
148
0.0
149
0.0
100
AcDbLayout
  1
_Right
 70
     1
 71
     3
 10
0.0
 20
0.0
 11
0.0
 21
0.0
 12
0.0
 22
0.0
 32
0.0
 14
0.0
 24
0.0
 34
0.0
 15
0.0
 25
0.0
 35
0.0
146
0.0
 13
0.0
 23
0.0
 33
0.0
 16
1.0
 26
0.0
 36
0.0
 17
0.0
 27
1.0
 37
0.0
 76
     0
330
17A
331
32D
  0
LAYOUT
  5
1E
102
{ACAD_REACTORS
330
1A
102
}
330
1A
100
AcDbPlotSettings
  1

  2
none_device
  4
ISO_A4_(210.00_x_297.00_MM)
  6

 40
7.5
 41
20.0
 42
7.5
 43
20.0
 44
210.0
 45
297.0
 46
0.0
 47
0.0
 48
0.0
 49
0.0
140
0.0
141
0.0
142
1.0
143
0.1881322957
 70
   688
 72
     1
 73
     1
 74
     1
  7

 75
     0
147
5.3154084798
148
0.0
149
0.0
100
AcDbLayout
  1
_Top
 70
     1
 71
     1
 10
-3.7626459144
 20
-1.4109922179
 11
52.1126459144
 21
38.0967898833
 12
0.0
 22
0.0
 32
0.0
 14
0.0
 24
0.0
 34
0.0
 15
48.35
 25
24.35
 35
0.0
146
0.0
 13
0.0
 23
0.0
 33
0.0
 16
1.0
 26
0.0
 36
0.0
 17
0.0
 27
1.0
 37
0.0
 76
     0
330
1B
331
329
  0
LAYOUT
  5
22
102
{ACAD_REACTORS
330
1A
102
}
330
1A
100
AcDbPlotSettings
  1

  2
none_device
  4
ANSI_A_(11.00_x_8.50_Inches)
  6

 40
6.35
 41
19.05
 42
6.35000508
 43
19.05000254
 44
279.4
 45
215.9
 46
28.6659101036
 47
34.1057159034
 48
0.0
 49
0.0
140
0.0
141
0.0
142
0.209348448
143
1.0
 70
  1696
 72
     0
 73
     0
 74
     0
  7

 75
     0
147
0.0179189148
148
-1300.4909072572
149
0.0
100
AcDbLayout
  1
Model
 70
     1
 71
     0
 10
0.0
 20
0.0
 11
420.0
 21
297.0
 12
0.0
 22
0.0
 32
0.0
 14
-6.3223742558
 24
-3.8516665572
 34
0.0
 15
45.6961628082
 25
24.4608972471
 35
0.0
146
0.0
 13
0.0
 23
0.0
 33
0.0
 16
1.0
 26
0.0
 36
0.0
 17
0.0
 27
1.0
 37
0.0
 76
     0
330
1F
331
29
  0
MLINESTYLE
  5
18
102
{ACAD_REACTORS
330
17
102
}
330
17
100
AcDbMlineStyle
  2
Standard
 70
     0
  3

 62
   256
 51
90.0
 52
90.0
 71
     2
 49
0.5
 62
   256
  6
BYLAYER
 49
-0.5
 62
   256
  6
BYLAYER
  0
ACDBPLACEHOLDER
  5
F
102
{ACAD_REACTORS
330
E
102
}
330
E
  0
SCALE
  5
48
102
{ACAD_REACTORS
330
47
102
}
330
47
100
AcDbScale
 70
     0
300
1:1
140
1.0
141
1.0
290
     1
  0
SCALE
  5
49
102
{ACAD_REACTORS
330
47
102
}
330
47
100
AcDbScale
 70
     0
300
1:2
140
1.0
141
2.0
290
     0
  0
SCALE
  5
4A
102
{ACAD_REACTORS
330
47
102
}
330
47
100
AcDbScale
 70
     0
300
1:4
140
1.0
141
4.0
290
     0
  0
SCALE
  5
4B
102
{ACAD_REACTORS
330
47
102
}
330
47
100
AcDbScale
 70
     0
300
1:5
140
1.0
141
5.0
290
     0
  0
SCALE
  5
4C
102
{ACAD_REACTORS
330
47
102
}
330
47
100
AcDbScale
 70
     0
300
1:8
140
1.0
141
8.0
290
     0
  0
SCALE
  5
4D
102
{ACAD_REACTORS
330
47
102
}
330
47
100
AcDbScale
 70
     0
300
1:10
140
1.0
141
10.0
290
     0
  0
SCALE
  5
4E
102
{ACAD_REACTORS
330
47
102
}
330
47
100
AcDbScale
 70
     0
300
1:16
140
1.0
141
16.0
290
     0
  0
SCALE
  5
4F
102
{ACAD_REACTORS
330
47
102
}
330
47
100
AcDbScale
 70
     0
300
1:20
140
1.0
141
20.0
290
     0
  0
SCALE
  5
50
102
{ACAD_REACTORS
330
47
102
}
330
47
100
AcDbScale
 70
     0
300
1:30
140
1.0
141
30.0
290
     0
  0
SCALE
  5
51
102
{ACAD_REACTORS
330
47
102
}
330
47
100
AcDbScale
 70
     0
300
1:40
140
1.0
141
40.0
290
     0
  0
SCALE
  5
52
102
{ACAD_REACTORS
330
47
102
}
330
47
100
AcDbScale
 70
     0
300
1:50
140
1.0
141
50.0
290
     0
  0
SCALE
  5
53
102
{ACAD_REACTORS
330
47
102
}
330
47
100
AcDbScale
 70
     0
300
1:100
140
1.0
141
100.0
290
     0
  0
SCALE
  5
54
102
{ACAD_REACTORS
330
47
102
}
330
47
100
AcDbScale
 70
     0
300
2:1
140
2.0
141
1.0
290
     0
  0
SCALE
  5
55
102
{ACAD_REACTORS
330
47
102
}
330
47
100
AcDbScale
 70
     0
300
4:1
140
4.0
141
1.0
290
     0
  0
SCALE
  5
56
102
{ACAD_REACTORS
330
47
102
}
330
47
100
AcDbScale
 70
     0
300
8:1
140
8.0
141
1.0
290
     0
  0
SCALE
  5
57
102
{ACAD_REACTORS
330
47
102
}
330
47
100
AcDbScale
 70
     0
300
10:1
140
10.0
141
1.0
290
     0
  0
SCALE
  5
58
102
{ACAD_REACTORS
330
47
102
}
330
47
100
AcDbScale
 70
     0
300
100:1
140
100.0
141
1.0
290
     0
  0
SCALE
  5
59
102
{ACAD_REACTORS
330
47
102
}
330
47
100
AcDbScale
 70
     0
300
1/128" = 1'-0"
140
0.0078125
141
12.0
290
     0
  0
SCALE
  5
5A
102
{ACAD_REACTORS
330
47
102
}
330
47
100
AcDbScale
 70
     0
300
1/64" = 1'-0"
140
0.015625
141
12.0
290
     0
  0
SCALE
  5
5B
102
{ACAD_REACTORS
330
47
102
}
330
47
100
AcDbScale
 70
     0
300
1/32" = 1'-0"
140
0.03125
141
12.0
290
     0
  0
SCALE
  5
5C
102
{ACAD_REACTORS
330
47
102
}
330
47
100
AcDbScale
 70
     0
300
1/16" = 1'-0"
140
0.0625
141
12.0
290
     0
  0
SCALE
  5
5D
102
{ACAD_REACTORS
330
47
102
}
330
47
100
AcDbScale
 70
     0
300
3/32" = 1'-0"
140
0.09375
141
12.0
290
     0
  0
SCALE
  5
5E
102
{ACAD_REACTORS
330
47
102
}
330
47
100
AcDbScale
 70
     0
300
1/8" = 1'-0"
140
0.125
141
12.0
290
     0
  0
SCALE
  5
5F
102
{ACAD_REACTORS
330
47
102
}
330
47
100
AcDbScale
 70
     0
300
3/16" = 1'-0"
140
0.1875
141
12.0
290
     0
  0
SCALE
  5
60
102
{ACAD_REACTORS
330
47
102
}
330
47
100
AcDbScale
 70
     0
300
1/4" = 1'-0"
140
0.25
141
12.0
290
     0
  0
SCALE
  5
61
102
{ACAD_REACTORS
330
47
102
}
330
47
100
AcDbScale
 70
     0
300
3/8" = 1'-0"
140
0.375
141
12.0
290
     0
  0
SCALE
  5
62
102
{ACAD_REACTORS
330
47
102
}
330
47
100
AcDbScale
 70
     0
300
1/2" = 1'-0"
140
0.5
141
12.0
290
     0
  0
SCALE
  5
63
102
{ACAD_REACTORS
330
47
102
}
330
47
100
AcDbScale
 70
     0
300
3/4" = 1'-0"
140
0.75
141
12.0
290
     0
  0
SCALE
  5
64
102
{ACAD_REACTORS
330
47
102
}
330
47
100
AcDbScale
 70
     0
300
1" = 1'-0"
140
1.0
141
12.0
290
     0
  0
SCALE
  5
65
102
{ACAD_REACTORS
330
47
102
}
330
47
100
AcDbScale
 70
     0
300
1-1/2" = 1'-0"
140
1.5
141
12.0
290
     0
  0
SCALE
  5
66
102
{ACAD_REACTORS
330
47
102
}
330
47
100
AcDbScale
 70
     0
300
3" = 1'-0"
140
3.0
141
12.0
290
     0
  0
SCALE
  5
67
102
{ACAD_REACTORS
330
47
102
}
330
47
100
AcDbScale
 70
     0
300
6" = 1'-0"
140
6.0
141
12.0
290
     0
  0
SCALE
  5
68
102
{ACAD_REACTORS
330
47
102
}
330
47
100
AcDbScale
 70
     0
300
1'-0" = 1'-0"
140
12.0
141
12.0
290
     0
  0
ENDSEC
  0
EOF
